<svg id="analytics" xmlns="http://www.w3.org/2000/svg" width="61.523" height="61.523" viewBox="0 0 61.523 61.523">
  <g id="Group_1790" data-name="Group 1790">
    <g id="Group_1789" data-name="Group 1789">
      <path id="Path_1674" data-name="Path 1674" d="M60.322,25.084h-7.69a1.2,1.2,0,0,0-1.2,1.2v6.068a1.2,1.2,0,1,0,2.4,0V27.487H59.12V59.12H53.833V41.366a1.2,1.2,0,1,0-2.4,0V59.12h-2.4V34.246a1.2,1.2,0,0,0-1.2-1.2h-7.69a1.2,1.2,0,0,0-1.2,1.2V59.12h-2.4V42.658a1.2,1.2,0,0,0-1.2-1.2h-7.69a1.2,1.2,0,0,0-1.2,1.2V59.12h-2.4V49.552a1.2,1.2,0,0,0-1.2-1.2h-7.69a1.2,1.2,0,0,0-1.2,1.2V59.12H3.6a1.2,1.2,0,0,1-1.2-1.2V3.6A1.2,1.2,0,0,1,3.6,2.4h31v7.931a3.609,3.609,0,0,0,3.6,3.6H46.14v14.78a1.2,1.2,0,0,0,2.4,0V12.738a1.2,1.2,0,0,0-.352-.85L36.655.352A1.2,1.2,0,0,0,35.806,0H3.6A3.609,3.609,0,0,0,0,3.6V57.919a3.609,3.609,0,0,0,3.6,3.6H60.322a1.2,1.2,0,0,0,1.2-1.2V26.286A1.2,1.2,0,0,0,60.322,25.084ZM37.007,4.1l7.433,7.433H38.209a1.2,1.2,0,0,1-1.2-1.2ZM21.629,59.12H16.342V50.754h5.287Zm12.5,0H28.839V43.859h5.287Zm12.5,0H41.336V35.448h5.287Z"/>
    </g>
  </g>
  <g id="Group_1792" data-name="Group 1792" transform="translate(51.43 35.435)">
    <g id="Group_1791" data-name="Group 1791">
      <path id="Path_1675" data-name="Path 1675" d="M430.051,295.242a1.2,1.2,0,1,0,.352.85A1.206,1.206,0,0,0,430.051,295.242Z" transform="translate(-428 -294.89)"/>
    </g>
  </g>
  <g id="Group_1794" data-name="Group 1794" transform="translate(6.441 6.576)">
    <g id="Group_1793" data-name="Group 1793">
      <path id="Path_1676" data-name="Path 1676" d="M64.654,54.729a1.2,1.2,0,0,0-1.2,1.2v2.162A11.052,11.052,0,1,0,75.641,70.281H77.8a1.2,1.2,0,0,0,1.2-1.2A14.367,14.367,0,0,0,64.654,54.729Zm0,23a8.649,8.649,0,0,1-1.2-17.214v8.565a1.2,1.2,0,0,0,1.2,1.2h8.565A8.662,8.662,0,0,1,64.654,77.728Zm1.2-9.85h0V57.192A11.97,11.97,0,0,1,76.541,67.878Z" transform="translate(-53.602 -54.729)"/>
    </g>
  </g>
  <g id="Group_1796" data-name="Group 1796" transform="translate(6.489 35.358)">
    <g id="Group_1795" data-name="Group 1795">
      <path id="Path_1677" data-name="Path 1677" d="M78.153,294.25H55.2a1.2,1.2,0,0,0,0,2.4H78.153a1.2,1.2,0,1,0,0-2.4Z" transform="translate(-54 -294.25)"/>
    </g>
  </g>
  <g id="Group_1798" data-name="Group 1798" transform="translate(6.489 41.156)">
    <g id="Group_1797" data-name="Group 1797">
      <path id="Path_1678" data-name="Path 1678" d="M62.892,342.5H55.2a1.2,1.2,0,0,0,0,2.4h7.69a1.2,1.2,0,0,0,0-2.4Z" transform="translate(-54 -342.5)"/>
    </g>
  </g>
  <g id="Group_1800" data-name="Group 1800" transform="translate(20.197 41.156)">
    <g id="Group_1799" data-name="Group 1799">
      <path id="Path_1679" data-name="Path 1679" d="M170.131,342.852a1.2,1.2,0,1,0,.352.85A1.211,1.211,0,0,0,170.131,342.852Z" transform="translate(-168.08 -342.5)"/>
    </g>
  </g>
</svg>
