<?xml version="1.0" encoding="utf-8"?>
<!-- Generator: Adobe Illustrator 22.0.0, SVG Export Plug-In . SVG Version: 6.00 Build 0)  -->
<svg version="1.1" id="Layer_1" xmlns="http://www.w3.org/2000/svg" xmlns:xlink="http://www.w3.org/1999/xlink" x="0px" y="0px"
	 viewBox="0 0 1080 1080" style="enable-background:new 0 0 1080 1080;" xml:space="preserve">
<style type="text/css">
	.st0{fill:url(#SVGID_1_);stroke:#000000;stroke-miterlimit:10;}
	.st1{fill:url(#SVGID_2_);stroke:url(#SVGID_3_);stroke-width:3;stroke-miterlimit:10;}
	.st2{fill:#FDC613;stroke:#FDC613;stroke-width:3;stroke-miterlimit:10;}
	.st3{fill:none;stroke:#FDC613;stroke-width:3;stroke-miterlimit:10;}
	.st4{fill:#FDC613;stroke:url(#SVGID_4_);stroke-width:3;stroke-miterlimit:10;}
	.st5{fill:url(#SVGID_5_);stroke:url(#SVGID_6_);stroke-width:3;stroke-miterlimit:10;}
	.st6{fill:#E94C39;stroke:#E94C39;stroke-width:3;stroke-miterlimit:10;}
	.st7{fill:url(#SVGID_7_);stroke:url(#SVGID_8_);stroke-width:3;stroke-miterlimit:10;}
	.st8{fill:#E94C39;stroke:url(#SVGID_9_);stroke-width:3;stroke-miterlimit:10;}
	.st9{fill:url(#SVGID_10_);stroke:url(#SVGID_11_);stroke-width:3;stroke-miterlimit:10;}
	.st10{fill:url(#SVGID_12_);stroke:url(#SVGID_13_);stroke-width:3;stroke-miterlimit:10;}
	.st11{fill:#E94C39;stroke:#FDC613;stroke-width:3;stroke-miterlimit:10;}
	.st12{fill:url(#SVGID_14_);stroke:url(#SVGID_15_);stroke-width:3;stroke-miterlimit:10;}
	.st13{fill:#E94C39;stroke:url(#SVGID_16_);stroke-width:3;stroke-miterlimit:10;}
	.st14{stroke:#E94C39;stroke-width:3;stroke-miterlimit:10;}
	.st15{fill:url(#SVGID_17_);stroke:url(#SVGID_18_);stroke-width:3;stroke-miterlimit:10;}
	.st16{fill:url(#SVGID_19_);stroke:url(#SVGID_20_);stroke-width:3;stroke-miterlimit:10;}
	.st17{fill:url(#SVGID_21_);stroke:url(#SVGID_22_);stroke-width:3;stroke-miterlimit:10;}
	.st18{fill:#E94C39;}
	.st19{fill:url(#SVGID_23_);stroke:#FDC613;stroke-width:3;stroke-miterlimit:10;}
	.st20{fill:url(#SVGID_24_);stroke:#E94C39;stroke-width:3;stroke-miterlimit:10;}
	.st21{fill:url(#SVGID_25_);stroke:#FDC613;stroke-width:3;stroke-miterlimit:10;}
	.st22{fill:url(#SVGID_26_);stroke:#FDC613;stroke-width:3;stroke-miterlimit:10;}
	.st23{fill:url(#SVGID_27_);stroke:url(#SVGID_28_);stroke-width:3;stroke-miterlimit:10;}
	.st24{fill:#FDC613;}
	.st25{fill:#FDC613;stroke:#FDC613;stroke-miterlimit:10;}
	.st26{fill:url(#SVGID_29_);}
	.st27{fill:url(#SVGID_30_);}
	.st28{fill:url(#SVGID_31_);}
	.st29{fill:url(#SVGID_32_);}
	.st30{fill:url(#SVGID_33_);}
	.st31{fill:url(#SVGID_34_);}
	.st32{fill:url(#SVGID_35_);}
	.st33{fill:url(#SVGID_36_);}
</style>
<linearGradient id="SVGID_1_" gradientUnits="userSpaceOnUse" x1="434.5" y1="541.5" x2="434.5" y2="541.5">
	<stop  offset="0" style="stop-color:#FD6613"/>
	<stop  offset="1" style="stop-color:#E94C39"/>
</linearGradient>
<line class="st0" x1="434.5" y1="541.5" x2="434.5" y2="541.5"/>
<linearGradient id="SVGID_2_" gradientUnits="userSpaceOnUse" x1="434.5" y1="459" x2="486.5" y2="459">
	<stop  offset="0" style="stop-color:#FD6613"/>
	<stop  offset="1" style="stop-color:#E94C39"/>
</linearGradient>
<linearGradient id="SVGID_3_" gradientUnits="userSpaceOnUse" x1="433.0694" y1="459" x2="487.9306" y2="459">
	<stop  offset="0.6462" style="stop-color:#FDC613"/>
	<stop  offset="1" style="stop-color:#E94C39"/>
</linearGradient>
<line class="st1" x1="434.5" y1="541.5" x2="486.5" y2="376.5"/>
<line class="st2" x1="359.5" y1="436.5" x2="434.5" y2="541.5"/>
<line class="st3" x1="486.5" y1="376.5" x2="359.5" y2="436.5"/>
<linearGradient id="SVGID_4_" gradientUnits="userSpaceOnUse" x1="485.4228" y1="441" x2="612.5772" y2="441">
	<stop  offset="0" style="stop-color:#FDC613"/>
	<stop  offset="1" style="stop-color:#E94C39"/>
</linearGradient>
<line class="st4" x1="611.5" y1="505.5" x2="486.5" y2="376.5"/>
<linearGradient id="SVGID_5_" gradientUnits="userSpaceOnUse" x1="434.5" y1="523.5" x2="611.5" y2="523.5">
	<stop  offset="0" style="stop-color:#FDC613"/>
	<stop  offset="1" style="stop-color:#E94C39"/>
</linearGradient>
<linearGradient id="SVGID_6_" gradientUnits="userSpaceOnUse" x1="434.201" y1="523.5" x2="611.799" y2="523.5">
	<stop  offset="0.6462" style="stop-color:#FDC613"/>
	<stop  offset="1" style="stop-color:#E94C39"/>
</linearGradient>
<line class="st5" x1="434.5" y1="541.5" x2="611.5" y2="505.5"/>
<line class="st6" x1="695.5" y1="643.5" x2="611.5" y2="505.5"/>
<linearGradient id="SVGID_7_" gradientUnits="userSpaceOnUse" x1="549.5" y1="581.5" x2="611.5" y2="581.5">
	<stop  offset="0" style="stop-color:#FDC613"/>
	<stop  offset="1" style="stop-color:#E94C39"/>
</linearGradient>
<linearGradient id="SVGID_8_" gradientUnits="userSpaceOnUse" x1="548.1111" y1="581.5" x2="612.8889" y2="581.5">
	<stop  offset="0" style="stop-color:#FDC613"/>
	<stop  offset="1" style="stop-color:#E94C39"/>
</linearGradient>
<line class="st7" x1="549.5" y1="657.5" x2="611.5" y2="505.5"/>
<linearGradient id="SVGID_9_" gradientUnits="userSpaceOnUse" x1="549.3568" y1="650.5" x2="695.6432" y2="650.5">
	<stop  offset="0" style="stop-color:#FDC613"/>
	<stop  offset="1" style="stop-color:#E94C39"/>
</linearGradient>
<line class="st8" x1="695.5" y1="643.5" x2="549.5" y2="657.5"/>
<line class="st2" x1="434.5" y1="541.5" x2="416.5" y2="705.5"/>
<linearGradient id="SVGID_10_" gradientUnits="userSpaceOnUse" x1="416.5" y1="681.5" x2="549.5" y2="681.5">
	<stop  offset="0" style="stop-color:#FDC613"/>
	<stop  offset="1" style="stop-color:#E94C39"/>
</linearGradient>
<linearGradient id="SVGID_11_" gradientUnits="userSpaceOnUse" x1="415.9908" y1="681.5" x2="550.0092" y2="681.5">
	<stop  offset="0" style="stop-color:#FDC613"/>
	<stop  offset="1" style="stop-color:#E94C39"/>
</linearGradient>
<line class="st9" x1="549.5" y1="657.5" x2="416.5" y2="705.5"/>
<linearGradient id="SVGID_12_" gradientUnits="userSpaceOnUse" x1="434.5" y1="599.5" x2="549.5" y2="599.5">
	<stop  offset="0" style="stop-color:#FDC613"/>
	<stop  offset="1" style="stop-color:#E94C39"/>
</linearGradient>
<linearGradient id="SVGID_13_" gradientUnits="userSpaceOnUse" x1="433.4348" y1="599.5" x2="550.5652" y2="599.5">
	<stop  offset="0.6462" style="stop-color:#FDC613"/>
	<stop  offset="1" style="stop-color:#E94C39"/>
</linearGradient>
<line class="st10" x1="434.5" y1="541.5" x2="549.5" y2="657.5"/>
<line class="st11" x1="359.5" y1="436.5" x2="312.5" y2="581.5"/>
<line class="st2" x1="434.5" y1="541.5" x2="312.5" y2="581.5"/>
<line class="st2" x1="416.5" y1="705.5" x2="312.5" y2="581.5"/>
<linearGradient id="SVGID_14_" gradientUnits="userSpaceOnUse" x1="611.5" y1="439.5" x2="639.5" y2="439.5">
	<stop  offset="0" style="stop-color:#FD6613"/>
	<stop  offset="1" style="stop-color:#E94C39"/>
</linearGradient>
<linearGradient id="SVGID_15_" gradientUnits="userSpaceOnUse" x1="610.0327" y1="439.5" x2="640.9673" y2="439.5">
	<stop  offset="0" style="stop-color:#FDC613"/>
	<stop  offset="1" style="stop-color:#E94C39"/>
</linearGradient>
<line class="st12" x1="611.5" y1="505.5" x2="639.5" y2="373.5"/>
<linearGradient id="SVGID_16_" gradientUnits="userSpaceOnUse" x1="486.4706" y1="375" x2="639.5294" y2="375">
	<stop  offset="0" style="stop-color:#FDC613"/>
	<stop  offset="1" style="stop-color:#E94C39"/>
</linearGradient>
<line class="st13" x1="486.5" y1="376.5" x2="639.5" y2="373.5"/>
<line class="st6" x1="611.5" y1="505.5" x2="740.5" y2="481.5"/>
<line class="st14" x1="639.5" y1="373.5" x2="740.5" y2="481.5"/>
<line class="st6" x1="770.5" y1="599.5" x2="740.5" y2="481.5"/>
<line class="st6" x1="695.5" y1="643.5" x2="770.5" y2="599.5"/>
<line class="st6" x1="740.5" y1="481.5" x2="695.5" y2="643.5"/>
<line class="st6" x1="704.5" y1="726.5" x2="695.5" y2="643.5"/>
<linearGradient id="SVGID_17_" gradientUnits="userSpaceOnUse" x1="549.5" y1="711.5" x2="580.5" y2="711.5">
	<stop  offset="0" style="stop-color:#FDC613"/>
	<stop  offset="1" style="stop-color:#E94C39"/>
</linearGradient>
<linearGradient id="SVGID_18_" gradientUnits="userSpaceOnUse" x1="548.0582" y1="711.5" x2="581.9418" y2="711.5">
	<stop  offset="0" style="stop-color:#FDC613"/>
	<stop  offset="1" style="stop-color:#E94C39"/>
</linearGradient>
<line class="st15" x1="549.5" y1="657.5" x2="580.5" y2="765.5"/>
<line class="st6" x1="695.5" y1="643.5" x2="580.5" y2="765.5"/>
<line class="st6" x1="704.5" y1="726.5" x2="580.5" y2="765.5"/>
<linearGradient id="SVGID_19_" gradientUnits="userSpaceOnUse" x1="416.5" y1="735.5" x2="580.5" y2="735.5">
	<stop  offset="0" style="stop-color:#FDC613"/>
	<stop  offset="1" style="stop-color:#E94C39"/>
</linearGradient>
<linearGradient id="SVGID_20_" gradientUnits="userSpaceOnUse" x1="415.9846" y1="735.5" x2="581.0154" y2="735.5">
	<stop  offset="0" style="stop-color:#FDC613"/>
	<stop  offset="1" style="stop-color:#E94C39"/>
</linearGradient>
<line class="st16" x1="416.5" y1="705.5" x2="580.5" y2="765.5"/>
<line class="st2" x1="312.5" y1="581.5" x2="347.5" y2="697.5"/>
<line class="st2" x1="416.5" y1="705.5" x2="460.5" y2="773.5"/>
<line class="st2" x1="347.5" y1="697.5" x2="460.5" y2="773.5"/>
<linearGradient id="SVGID_21_" gradientUnits="userSpaceOnUse" x1="460.5" y1="777" x2="591.5" y2="777">
	<stop  offset="0" style="stop-color:#FDC613"/>
	<stop  offset="1" style="stop-color:#E94C39"/>
</linearGradient>
<linearGradient id="SVGID_22_" gradientUnits="userSpaceOnUse" x1="460.42" y1="777" x2="591.58" y2="777">
	<stop  offset="0" style="stop-color:#FDC613"/>
	<stop  offset="1" style="stop-color:#E94C39"/>
</linearGradient>
<line class="st17" x1="591.5" y1="780.5" x2="460.5" y2="773.5"/>
<line class="st6" x1="704.5" y1="726.5" x2="591.5" y2="780.5"/>
<line class="st6" x1="770.5" y1="599.5" x2="704.5" y2="726.5"/>
<line class="st18" x1="740.5" y1="481.5" x2="768.5" y2="481.5"/>
<line class="st14" x1="700.5" y1="355.5" x2="740.5" y2="481.5"/>
<line class="st6" x1="639.5" y1="373.5" x2="702.5" y2="361.5"/>
<linearGradient id="SVGID_23_" gradientUnits="userSpaceOnUse" x1="486.5" y1="337.5" x2="555.5" y2="337.5">
	<stop  offset="0" style="stop-color:#FDC613"/>
	<stop  offset="1" style="stop-color:#E94C39"/>
</linearGradient>
<line class="st19" x1="486.5" y1="376.5" x2="555.5" y2="298.5"/>
<linearGradient id="SVGID_24_" gradientUnits="userSpaceOnUse" x1="555.5" y1="336" x2="639.5" y2="336">
	<stop  offset="0" style="stop-color:#FDC613"/>
	<stop  offset="1" style="stop-color:#E94C39"/>
</linearGradient>
<line class="st20" x1="639.5" y1="373.5" x2="555.5" y2="298.5"/>
<line class="st6" x1="700.5" y1="355.5" x2="555.5" y2="298.5"/>
<line class="st2" x1="359.5" y1="436.5" x2="305.5" y2="451.5"/>
<line class="st2" x1="416.5" y1="705.5" x2="347.5" y2="697.5"/>
<line class="st11" x1="313.3" y1="581.4" x2="304.7" y2="451.5"/>
<line class="st3" x1="486.5" y1="376.5" x2="404.5" y2="335.5"/>
<linearGradient id="SVGID_25_" gradientUnits="userSpaceOnUse" x1="404.5" y1="317" x2="555.5" y2="317">
	<stop  offset="0" style="stop-color:#FDC613"/>
	<stop  offset="1" style="stop-color:#E94C39"/>
</linearGradient>
<line class="st21" x1="555.5" y1="298.5" x2="404.5" y2="335.5"/>
<line class="st14" x1="700.5" y1="355.5" x2="768.5" y2="481.5"/>
<line class="st6" x1="770.5" y1="599.5" x2="768.5" y2="481.5"/>
<linearGradient id="SVGID_26_" gradientUnits="userSpaceOnUse" x1="492.5" y1="301.5" x2="555.5" y2="301.5">
	<stop  offset="0" style="stop-color:#FDC613"/>
	<stop  offset="1" style="stop-color:#E94C39"/>
</linearGradient>
<line class="st22" x1="555.5" y1="298.5" x2="492.5" y2="304.5"/>
<line class="st2" x1="404.5" y1="335.5" x2="492.5" y2="304.5"/>
<line class="st2" x1="306" y1="451.9" x2="404" y2="335.1"/>
<line class="st2" x1="347.5" y1="697.5" x2="302.5" y2="574.5"/>
<line class="st11" x1="304.7" y1="451.5" x2="303.2" y2="574.6"/>
<linearGradient id="SVGID_27_" gradientUnits="userSpaceOnUse" x1="460.5" y1="769.5" x2="580.5" y2="769.5">
	<stop  offset="0" style="stop-color:#FDC613"/>
	<stop  offset="1" style="stop-color:#E94C39"/>
</linearGradient>
<linearGradient id="SVGID_28_" gradientUnits="userSpaceOnUse" x1="460.4002" y1="769.5" x2="580.5998" y2="769.5">
	<stop  offset="0" style="stop-color:#FDC613"/>
	<stop  offset="1" style="stop-color:#E94C39"/>
</linearGradient>
<line class="st23" x1="580.5" y1="765.5" x2="460.5" y2="773.5"/>
<line class="st2" x1="359.9" y1="436.5" x2="404" y2="335.1"/>
<circle class="st24" cx="308.5" cy="450.5" r="13.5"/>
<circle class="st24" cx="357.5" cy="436.5" r="13.5"/>
<circle class="st24" cx="431.5" cy="547.5" r="13.5"/>
<circle class="st24" cx="313.5" cy="578.5" r="13.5"/>
<circle class="st24" cx="303.5" cy="578.5" r="10.5"/>
<circle class="st24" cx="455.5" cy="773.5" r="13.5"/>
<circle class="st25" cx="347.5" cy="697.5" r="13.5"/>
<circle class="st24" cx="421.5" cy="707.5" r="13.5"/>
<linearGradient id="SVGID_29_" gradientUnits="userSpaceOnUse" x1="537" y1="660.5" x2="564" y2="660.5">
	<stop  offset="0" style="stop-color:#FDC613"/>
	<stop  offset="0.1515" style="stop-color:#FCC015"/>
	<stop  offset="0.3464" style="stop-color:#F9B01A"/>
	<stop  offset="0.565" style="stop-color:#F59622"/>
	<stop  offset="0.7991" style="stop-color:#EF712D"/>
	<stop  offset="1" style="stop-color:#E94C39"/>
</linearGradient>
<circle class="st26" cx="550.5" cy="660.5" r="13.5"/>
<linearGradient id="SVGID_30_" gradientUnits="userSpaceOnUse" x1="472" y1="379.5" x2="499" y2="379.5">
	<stop  offset="0" style="stop-color:#FDC613"/>
	<stop  offset="0.1515" style="stop-color:#FCC015"/>
	<stop  offset="0.3464" style="stop-color:#F9B01A"/>
	<stop  offset="0.565" style="stop-color:#F59622"/>
	<stop  offset="0.7991" style="stop-color:#EF712D"/>
	<stop  offset="1" style="stop-color:#E94C39"/>
</linearGradient>
<circle class="st27" cx="485.5" cy="379.5" r="13.5"/>
<linearGradient id="SVGID_31_" gradientUnits="userSpaceOnUse" x1="474" y1="301.5" x2="501" y2="301.5">
	<stop  offset="0" style="stop-color:#FDC613"/>
	<stop  offset="0.1515" style="stop-color:#FCC015"/>
	<stop  offset="0.3464" style="stop-color:#F9B01A"/>
	<stop  offset="0.565" style="stop-color:#F59622"/>
	<stop  offset="0.7991" style="stop-color:#EF712D"/>
	<stop  offset="1" style="stop-color:#E94C39"/>
</linearGradient>
<circle class="st28" cx="487.5" cy="301.5" r="13.5"/>
<linearGradient id="SVGID_32_" gradientUnits="userSpaceOnUse" x1="542" y1="298.5" x2="569" y2="298.5">
	<stop  offset="0" style="stop-color:#FDC613"/>
	<stop  offset="0.1515" style="stop-color:#FCC015"/>
	<stop  offset="0.3464" style="stop-color:#F9B01A"/>
	<stop  offset="0.565" style="stop-color:#F59622"/>
	<stop  offset="0.7991" style="stop-color:#EF712D"/>
	<stop  offset="1" style="stop-color:#E94C39"/>
</linearGradient>
<circle class="st29" cx="555.5" cy="298.5" r="13.5"/>
<linearGradient id="SVGID_33_" gradientUnits="userSpaceOnUse" x1="626" y1="373.5" x2="653" y2="373.5">
	<stop  offset="0" style="stop-color:#FDC613"/>
	<stop  offset="0.1515" style="stop-color:#FCC015"/>
	<stop  offset="0.3464" style="stop-color:#F9B01A"/>
	<stop  offset="0.565" style="stop-color:#F59622"/>
	<stop  offset="0.7991" style="stop-color:#EF712D"/>
	<stop  offset="1" style="stop-color:#E94C39"/>
</linearGradient>
<circle class="st30" cx="639.5" cy="373.5" r="13.5"/>
<linearGradient id="SVGID_34_" gradientUnits="userSpaceOnUse" x1="598" y1="506.5" x2="625" y2="506.5">
	<stop  offset="0" style="stop-color:#FDC613"/>
	<stop  offset="0.1515" style="stop-color:#FCC015"/>
	<stop  offset="0.3464" style="stop-color:#F9B01A"/>
	<stop  offset="0.565" style="stop-color:#F59622"/>
	<stop  offset="0.7991" style="stop-color:#EF712D"/>
	<stop  offset="1" style="stop-color:#E94C39"/>
</linearGradient>
<circle class="st31" cx="611.5" cy="506.5" r="13.5"/>
<circle class="st18" cx="695.5" cy="643.5" r="13.5"/>
<circle class="st18" cx="772.5" cy="598.5" r="13.5"/>
<circle class="st18" cx="707.5" cy="721.5" r="13.5"/>
<linearGradient id="SVGID_35_" gradientUnits="userSpaceOnUse" x1="567" y1="763.5" x2="594" y2="763.5">
	<stop  offset="0" style="stop-color:#FDC613"/>
	<stop  offset="0.1515" style="stop-color:#FCC015"/>
	<stop  offset="0.3464" style="stop-color:#F9B01A"/>
	<stop  offset="0.565" style="stop-color:#F59622"/>
	<stop  offset="0.7991" style="stop-color:#EF712D"/>
	<stop  offset="1" style="stop-color:#E94C39"/>
</linearGradient>
<circle class="st32" cx="580.5" cy="763.5" r="13.5"/>
<linearGradient id="SVGID_36_" gradientUnits="userSpaceOnUse" x1="576" y1="781.5" x2="603" y2="781.5">
	<stop  offset="0" style="stop-color:#FDC613"/>
	<stop  offset="0.1515" style="stop-color:#FCC015"/>
	<stop  offset="0.3464" style="stop-color:#F9B01A"/>
	<stop  offset="0.565" style="stop-color:#F59622"/>
	<stop  offset="0.7991" style="stop-color:#EF712D"/>
	<stop  offset="1" style="stop-color:#E94C39"/>
</linearGradient>
<circle class="st33" cx="589.5" cy="781.5" r="13.5"/>
<circle class="st18" cx="696.5" cy="359.5" r="13.5"/>
<circle class="st18" cx="768.5" cy="479.5" r="13.5"/>
<circle class="st18" cx="740.5" cy="479.5" r="13.5"/>
<circle class="st24" cx="405.5" cy="333.5" r="13.5"/>
</svg>
