<svg xmlns="http://www.w3.org/2000/svg" width="42" height="42" viewBox="0 0 42 42">
  <g id="benefits" transform="translate(0 0)">
    <path id="Path_208" data-name="Path 208" d="M38.309,56a3.7,3.7,0,0,0-3.691,3.691v9.4a3.7,3.7,0,0,0-3.841.87l-9.208,9.208a6.215,6.215,0,0,0-.568.655,6.207,6.207,0,0,0-.568-.655L11.224,69.96a3.7,3.7,0,0,0-3.841-.87v-9.4a3.691,3.691,0,0,0-7.383,0V75.458L7.383,87.6v5.808H34.617V87.6L42,75.458V59.691A3.7,3.7,0,0,0,38.309,56ZM2.461,74.769V59.691a1.23,1.23,0,0,1,2.461,0v12.92A3.693,3.693,0,0,0,6,75.18l9.2,9.2,1.74-1.74-9.2-9.2a1.23,1.23,0,0,1,1.74-1.74l9.208,9.208a3.67,3.67,0,0,1,1.078,2.613v7.424H9.844V86.909Zm37.078,0L32.156,86.909v4.036H22.23V83.521a3.67,3.67,0,0,1,1.078-2.613L32.517,71.7a1.23,1.23,0,1,1,1.74,1.74l-9.2,9.205,1.74,1.74L36,75.18a3.666,3.666,0,0,0,1.08-2.569s0-12.92,0-12.92a1.23,1.23,0,1,1,2.461,0Z" transform="translate(0 -51.406)" fill="#6262a0"/>
    <path id="Path_209" data-name="Path 209" d="M136.332,20.508h9.844V15.176h5.332V5.332h-5.332V0h-9.844V5.332H131v9.844h5.332Zm-2.871-7.793V7.793h5.332V2.461h4.922V7.793h5.332v4.922h-5.332v5.332h-4.922V12.715Z" transform="translate(-120.254)" fill="#6262a0"/>
  </g>
</svg>
