<svg id="benefits" xmlns="http://www.w3.org/2000/svg" width="51.246" height="51.246" viewBox="0 0 51.246 51.246">
  <path id="Path_1653" data-name="Path 1653" d="M46.742,56a4.509,4.509,0,0,0-4.5,4.5V71.972a4.51,4.51,0,0,0-4.686,1.061L26.316,84.269a7.585,7.585,0,0,0-.693.8,7.577,7.577,0,0,0-.693-.8L13.694,73.033a4.51,4.51,0,0,0-4.686-1.061V60.5A4.5,4.5,0,0,0,0,60.5V79.742L9.008,94.555v7.086h33.23V94.555l9.008-14.813V60.5A4.509,4.509,0,0,0,46.742,56ZM3,78.9V60.5a1.5,1.5,0,0,1,3,0V76.268A4.506,4.506,0,0,0,7.325,79.4L18.556,90.634l2.123-2.123L9.448,77.28a1.5,1.5,0,0,1,2.123-2.123L22.807,86.392a4.478,4.478,0,0,1,1.315,3.188v9.058H12.011V93.714Zm45.241,0L39.235,93.714v4.925H27.124V89.58a4.478,4.478,0,0,1,1.315-3.188L39.675,75.157A1.5,1.5,0,1,1,41.8,77.28L30.567,88.511l2.123,2.123L43.922,79.4a4.472,4.472,0,0,0,1.318-3.135s0-15.764,0-15.764a1.5,1.5,0,0,1,3,0Z" transform="translate(0 -50.395)"/>
  <path id="Path_1654" data-name="Path 1654" d="M137.506,25.023h12.011V18.517h6.506V6.506h-6.506V0H137.506V6.506H131V18.517h6.506ZM134,15.514V9.509h6.506V3h6.005V9.509h6.506v6.005h-6.506V22.02h-6.005V15.514Z" transform="translate(-117.888)"/>
</svg>
