<svg xmlns="http://www.w3.org/2000/svg" width="365" height="92" viewBox="0 0 365 92">
    <g fill="none" fill-rule="nonzero">
        <ellipse cx="46.669" cy="46" fill="#33B5AB" rx="45.706" ry="46"/>
        <path fill="#191718" d="M72.409 71.179h-2.647c-2.405 0-3.608-1.21-3.608-3.632 0-2.663-.481-2.42-2.406-2.42H29.83c-1.924 0-1.924 0-2.165 1.936 0 2.905-1.202 3.874-4.09 3.874h-5.532c-2.165 0-3.368-1.21-3.368-3.39v-6.052c-.24-.242-.24-.969-.722-1.453-4.089-4.842-4.57-10.895-1.443-16.22.722-.97.722-1.454-.722-1.454-1.443 0-2.165-.726-2.405-2.179-.24-1.694-.722-3.147-.962-4.842-.241-1.694.48-2.42 1.924-2.42h5.533c1.443 0 1.924-.485 2.406-1.695.962-2.664 2.405-5.327 4.09-7.748 1.683-2.42 4.33-3.39 6.975-4.358a50.47 50.47 0 0 1 11.788-2.179c6.976-.484 13.952 0 20.929 1.695 5.773 1.453 9.622 4.842 11.787 10.169.24.484.481.968.481 1.21.481 2.421 2.165 3.147 4.33 2.905 1.444-.242 2.646 0 4.09 0 1.684 0 2.405.969 1.924 2.421-.24 1.453-.481 2.906-.962 4.358-.481 1.937-.962 2.421-2.887 2.421-.962 0-1.203.242-.721 1.21 3.608 5.57 3.127 11.622-1.203 16.706-.481.484-.481 1.21-.481 1.937v5.568c0 2.421-1.203 3.632-3.609 3.632H72.41z"/>
        <path fill="#FEFEFE" d="M46.669 36.074H24.297c-1.203 0-1.444-.242-.963-1.453.722-1.695 1.444-3.39 2.406-5.084.962-2.18 2.646-3.632 4.811-4.358 3.609-1.21 7.217-1.937 10.825-2.179 6.495-.484 12.75-.242 19.245 1.453 3.85.968 6.495 2.905 7.939 6.779.48 1.21.962 2.179 1.443 3.147.722 1.695.481 1.695-.962 1.695H46.669zM68.56 57.379c-3.128 0-5.774-2.421-5.774-5.568 0-3.39 2.406-5.811 5.774-5.811 3.127 0 5.773 2.421 5.773 5.81 0 2.906-2.646 5.569-5.773 5.569zM30.792 51.568c0 3.148-2.406 5.81-5.774 5.81-3.127 0-5.773-2.662-5.773-5.81 0-3.147 2.405-5.568 5.773-5.568 3.128-.242 5.533 2.421 5.774 5.568z"/>
        <g>
            <path fill="#191718" d="M137.12 59.074c.48 0 .961.242 1.443.726l4.09 4.358c-2.166 2.663-4.572 4.6-7.699 6.053-3.127 1.452-6.735 1.936-10.825 1.936-3.849 0-7.217-.726-10.344-1.936-3.127-1.211-5.533-3.148-7.698-5.327-2.165-2.42-3.849-5.084-4.811-8.231-1.203-3.148-1.684-6.78-1.684-10.41 0-2.422.24-4.843.722-7.264.48-2.179 1.443-4.358 2.405-6.295.962-1.937 2.406-3.631 3.85-5.084 1.442-1.453 3.126-2.905 5.05-3.874 1.925-1.21 3.85-1.937 6.015-2.42 2.165-.485 4.57-.97 6.976-.97 1.925 0 3.609.243 5.292.485 1.684.242 3.128.726 4.571 1.453 1.443.484 2.887 1.21 4.09 2.179a18.183 18.183 0 0 1 3.367 2.663l-3.608 4.842-.722.726c-.24.242-.721.242-1.443.242-.481 0-1.203-.242-1.684-.484-.481-.484-1.203-.726-2.165-1.453-.722-.484-1.924-.968-3.127-1.452-1.203-.484-2.887-.484-4.811-.484-2.165 0-4.09.484-5.774 1.21-1.684.726-3.368 1.937-4.57 3.39-1.203 1.452-2.166 3.147-2.887 5.326-.722 2.179-.962 4.6-.962 7.263 0 2.663.48 5.084 1.202 7.263.722 2.18 1.684 3.874 3.128 5.327 1.202 1.452 2.886 2.663 4.57 3.39 1.684.725 3.609 1.21 5.533 1.21 1.203 0 2.165 0 3.127-.243.963 0 1.925-.242 2.647-.484.721-.242 1.683-.726 2.405-1.21.722-.484 1.444-.969 2.165-1.695.24-.242.481-.484.722-.484.962-.242 1.203-.242 1.443-.242zM192.689 71.421h-8.18c-.962 0-1.683-.242-2.164-.726-.482-.484-.963-.969-1.203-1.695l-3.368-9.684h-20.207L154.199 69c-.24.484-.722 1.21-1.203 1.695-.48.484-1.203.726-2.165.726h-8.179l19.726-51.084h10.825L192.69 71.42zm-17.802-19.368l-5.533-15.495c-.24-.726-.721-1.695-.962-2.905-.481-1.21-.722-2.18-.962-3.632-.24 1.21-.722 2.421-.962 3.632-.482 1.21-.722 2.179-.963 2.905l-5.533 15.495h14.915zM237.192 71.421h-9.382c-1.684 0-3.127-.726-3.849-1.937l-9.622-15.737c-.481-.726-.722-.968-1.203-1.452-.48-.242-1.203-.484-2.165-.484h-3.608v19.368h-10.585v-50.6h15.877c3.609 0 6.495.484 9.141 1.21 2.406.727 4.571 1.695 6.255 3.148 1.684 1.21 2.887 2.905 3.608 4.6.722 1.937 1.203 3.874 1.203 6.052 0 1.695-.24 3.39-.722 4.843-.48 1.452-1.202 2.905-2.165 4.115-.962 1.21-1.924 2.421-3.367 3.39-1.444.968-2.887 1.695-4.571 2.42.722.485 1.203.727 1.924 1.454.482.484 1.203 1.21 1.684 1.936l11.547 17.674zm-24.537-26.874c1.684 0 3.127-.242 4.33-.726 1.203-.484 2.165-.968 3.127-1.695.722-.726 1.444-1.694 1.684-2.663.482-.968.482-2.179.482-3.39 0-2.42-.722-4.357-2.406-5.568-1.684-1.452-4.09-1.937-7.217-1.937h-5.533V44.79h5.533v-.242zM268.946 30.263c-.24.484-.721.969-.962 1.21-.24.243-.722.485-1.203.485-.481 0-.962-.242-1.684-.484-.48-.242-1.203-.727-2.165-1.21-.721-.485-1.684-.727-2.646-1.211-.962-.485-2.165-.485-3.608-.485-2.406 0-4.33.485-5.533 1.695-1.203 1.21-1.925 2.421-1.925 4.358 0 1.21.24 1.937.962 2.905.722.727 1.444 1.453 2.647 1.937l3.608 1.453 4.33 1.452c1.444.485 2.887 1.21 4.33 1.695 1.444.726 2.646 1.453 3.609 2.663 1.202.969 1.924 2.18 2.646 3.874.721 1.453.962 3.39.962 5.326 0 2.421-.481 4.6-1.203 6.537-.721 1.937-1.924 3.874-3.368 5.326-1.443 1.453-3.367 2.664-5.532 3.632-2.166.968-4.812 1.21-7.458 1.21-1.684 0-3.127-.242-4.811-.484-1.684-.242-3.127-.726-4.57-1.452-1.444-.484-2.887-1.21-4.09-2.18a18.183 18.183 0 0 1-3.368-2.662l3.127-5.085c.24-.484.481-.726.962-.968.482-.242.963-.484 1.444-.484.721 0 1.203.242 1.924.726.722.484 1.444.969 2.406 1.453.962.484 1.924.968 3.127 1.452 1.203.485 2.646.727 4.33.727 2.406 0 4.33-.485 5.774-1.695 1.443-1.21 1.924-2.905 1.924-5.084 0-1.21-.24-2.421-.962-3.148-.722-.726-1.443-1.452-2.646-1.936-.962-.485-2.406-.969-3.609-1.453-1.443-.484-2.886-.726-4.33-1.21-1.443-.485-2.886-.97-4.33-1.695-1.443-.727-2.646-1.453-3.608-2.664-.962-.968-1.925-2.42-2.646-4.115-.722-1.695-.963-3.632-.963-6.053 0-1.937.482-3.632 1.203-5.568.722-1.695 1.925-3.39 3.368-4.842 1.443-1.453 3.127-2.422 5.292-3.39 2.165-.726 4.571-1.21 7.217-1.21 3.127 0 5.774.484 8.42 1.452 2.646.969 4.811 2.18 6.495 3.874l-2.887 5.326z"/>
            <path fill="#33B5AB" d="M312.969 52.053v5.568c0 .484-.24.968-.481 1.21-.241.485-.722.485-1.444.485h-3.849V71.42h-8.42V59.316h-20.928c-.722 0-1.203-.242-1.684-.484-.481-.485-.722-.969-.962-1.453l-.962-4.842 23.815-31.958h9.141v31.474h5.774zm-14.193 0V36.8v-2.663c0-.969.24-1.937.24-2.905L284.342 51.81h14.434v.242zM326.2 38.737c.962-.242 2.165-.242 3.127-.484.962 0 1.924-.242 2.886-.242 2.647 0 5.052.484 6.977 1.21 1.924.726 3.849 1.937 5.051 3.39 1.444 1.452 2.406 3.147 3.128 4.842.721 1.936.962 3.873.962 6.052a19.84 19.84 0 0 1-1.443 7.506c-.963 2.178-2.165 4.115-3.85 5.81-1.683 1.695-3.608 2.905-6.013 3.632-2.406.968-4.812 1.452-7.698 1.452-1.684 0-3.128-.242-4.57-.484-1.444-.242-2.888-.726-4.09-1.453-1.203-.484-2.406-1.21-3.609-1.936-1.203-.727-2.165-1.453-2.887-2.421l2.887-4.116c.722-.969 1.444-1.21 2.406-1.21.721 0 1.203.241 1.924.483.722.485 1.203.727 2.165 1.21.722.485 1.684.97 2.646 1.211.963.485 2.166.485 3.85.485 1.443 0 2.886-.242 3.848-.727 1.203-.484 1.925-1.21 2.887-2.179.722-.968 1.203-1.936 1.684-3.147.481-1.21.481-2.421.481-3.874 0-2.663-.722-4.6-2.165-6.052-1.443-1.453-3.608-2.18-6.495-2.18-2.406 0-4.811.485-6.976 1.453l-6.014-1.694 4.33-25.18h24.778v4.117c0 .726 0 1.21-.241 1.936-.24.485-.481.969-.962 1.453-.481.484-.963.726-1.684.968-.722.243-1.684.243-2.646.243h-12.99l-1.685 9.926z"/>
        </g>
        <circle cx="357" cy="67" r="5" fill="#33B5AB"/>
        <g fill="#191718">
            <path d="M355.433 53.244c.234 0 .234.245.234.245v.489c0 .244 0 .244-.234.489 0 .244-.233.244-.233.489 0 .244-.233.488-.233.733 0 .244-.234.489-.234.978s0 .733.234 1.222l.7.733c.233.245.7.245.933.49.467 0 .933.244 1.4.244 1.167 0 1.867-.245 2.567-.734.466-.489.933-.978.933-1.71 0-.49 0-.734-.233-.979-.234-.244-.234-.489-.234-.489-.233-.244-.233-.244-.233-.488 0-.245-.233-.245-.233-.49 0-.244 0-.488.233-.733l1.167-.977c.466.244.7.733.933 1.222.233.489.467.733.7 1.222.233.489.233.733.233 1.222v1.222c0 .734-.233 1.467-.466 1.956-.234.733-.7 1.222-1.167 1.711-.467.489-1.167.978-1.867 1.222-.7.245-1.633.49-2.566.49-.7 0-1.634-.245-2.334-.49-.7-.244-1.4-.733-1.866-1.222a5.365 5.365 0 0 1-1.167-1.955c-.233-.734-.467-1.467-.467-2.445 0-.978.234-1.711.467-2.444.233-.734.7-1.223 1.167-1.956l1.866.733zM352.4 45.667c0-.978.233-1.711.467-2.445.233-.733.7-1.466 1.166-1.955.467-.49 1.167-.978 1.867-1.223.7-.244 1.4-.488 2.333-.488.934 0 1.634.244 2.334.488.7.245 1.4.734 1.866 1.223a5.365 5.365 0 0 1 1.167 1.955c.233.734.467 1.467.467 2.445 0 .977-.234 1.71-.467 2.444a5.365 5.365 0 0 1-1.167 1.956c-.466.489-1.166.977-1.866 1.222-.7.244-1.634.489-2.334.489-.933 0-1.633-.245-2.333-.49-.7-.244-1.4-.732-1.867-1.221a5.365 5.365 0 0 1-1.166-1.956c-.234-.733-.467-1.467-.467-2.444zm9.1 0c0-.734-.233-1.467-.933-1.711-.467-.49-1.4-.49-2.567-.49-1.167 0-1.867.245-2.567.49-.466.488-.7.977-.7 1.71 0 .734.234 1.467.7 1.712.467.489 1.4.489 2.567.489 1.167 0 1.867-.245 2.567-.49.7-.244.933-.977.933-1.71zM363.833 37.844h-11.2v-2.2c0-.488.234-.733.467-.977l.7-.245c-.233-.244-.467-.489-.467-.733-.233-.245-.233-.489-.466-.733-.234-.245-.234-.49-.234-.734v-.978c0-.733.234-1.222.467-1.71.467-.49.933-.734 1.4-.978-.233-.245-.7-.49-.933-.734-.234-.244-.467-.489-.7-.978-.234-.244-.234-.733-.234-.977v-.978c0-.733 0-1.222.234-1.711.233-.49.466-.978.933-1.222.467-.245.7-.734 1.4-.734.467-.244 1.167-.244 1.867-.244h7.233V24.4h-7.233c-1.167 0-1.634.489-1.634 1.467 0 .489.234.977.467 1.222.233.244.7.489 1.4.489h7.233V31H357.3c-.7 0-1.167.244-1.4.489-.233.244-.467.733-.467 1.222 0 .245 0 .733.234.978.233.244.233.489.466.733h8.167v3.422h-.467z"/>
        </g>
    </g>
</svg>
