<svg width="16" height="16" viewBox="0 0 16 16" fill="none" xmlns="http://www.w3.org/2000/svg">
<path d="M14.8369 4.39118C14.114 0.412611 9.95722 1.40725 7.96922 2.40189C3.26999 -0.0848143 1.10125 2.89956 1.10156 4.39118C1.10179 5.50313 1.46302 7.54098 2.54738 8.86717C3.63175 10.1934 3.63175 10.5249 3.63175 12.0169C3.63175 13.5088 4.53539 15.1666 5.2583 15.1666C5.98121 15.1666 6.16194 15.1666 6.88485 12.0169C7.60776 8.86717 8.69213 9.36449 9.23431 12.0169C9.77649 14.6692 10.3187 15.3323 10.8609 15.1666C11.403 15.0008 12.126 14.0061 12.126 12.5142C12.126 11.3206 12.8489 9.58552 13.2103 8.86717C14.6561 7.27574 14.8971 5.22008 14.8369 4.39118Z" stroke="#2BABAD" stroke-width="1.2"/>
</svg>
