<svg xmlns="http://www.w3.org/2000/svg" width="30.931" height="32.389" viewBox="0 0 30.931 32.389">
  <g id="document" transform="translate(0 -0.001)">
    <path id="Path_212" data-name="Path 212" d="M0,29.519a2.964,2.964,0,0,0,3.031,2.87h17.8A2.976,2.976,0,0,0,23.793,30a2.92,2.92,0,0,0,2.524-2.834V14.236h1.446a.517.517,0,0,0,.285-.079l2.646-1.719a.521.521,0,0,0,0-.874L28.048,9.829a.537.537,0,0,0-.285-.1H26.317V6.88a.647.647,0,0,0-.232-.45L20.062.295A.524.524,0,0,0,19.939.17L19.923.154A.521.521,0,0,0,19.55,0H5.511A2.988,2.988,0,0,0,2.534,2.389,2.93,2.93,0,0,0,0,5.223ZM8.881,13.191V10.775h18.35v2.416Zm19.395-.429V11.245L29.441,12Zm-8.1-10.88L24.51,6.334H20.877a.683.683,0,0,1-.7-.669ZM5.511,1.045H19.134v4.62a1.728,1.728,0,0,0,1.743,1.714h4.4V9.73H8.385a.571.571,0,0,0-.548.552v.067l-1.555-.031h0a.537.537,0,0,0-.522.538l.016,2.274a.522.522,0,0,0,.522.518H7.836v.077a.536.536,0,0,0,.548.511h1.1l-.007.784a1.15,1.15,0,0,0,.312.805.967.967,0,0,0,.677.305h6.343a.522.522,0,0,0,0-1.045H10.528c0-.065,0-.033,0-.041l.007-.808H25.272V27.166a1.9,1.9,0,0,1-1.965,1.828H5.511a1.92,1.92,0,0,1-1.985-1.828V2.953c0-.027.017-.054.017-.081a.5.5,0,0,0,0-.068,1.912,1.912,0,0,1,1.968-1.76ZM7.836,12.6H6.812L6.79,11.381l1.046.012ZM1.045,5.223A1.908,1.908,0,0,1,2.481,3.462v23.7a2.965,2.965,0,0,0,3.03,2.873h17.2a1.917,1.917,0,0,1-1.883,1.306H3.031a1.92,1.92,0,0,1-1.987-1.826Zm0,0" transform="translate(0 0)" fill="#ababc7"/>
    <path id="Path_213" data-name="Path 213" d="M88.983,269.045h8.589a.522.522,0,1,0,0-1.045H88.983a.522.522,0,1,0,0,1.045Zm0,0" transform="translate(-82.684 -250.499)" fill="#ababc7"/>
    <path id="Path_214" data-name="Path 214" d="M88.983,308.045h14.948a.522.522,0,1,0,0-1.045H88.983a.522.522,0,1,0,0,1.045Zm0,0" transform="translate(-82.684 -286.952)" fill="#ababc7"/>
    <path id="Path_215" data-name="Path 215" d="M88.983,347.045h14.948a.522.522,0,1,0,0-1.045H88.983a.522.522,0,1,0,0,1.045Zm0,0" transform="translate(-82.684 -323.406)" fill="#ababc7"/>
    <path id="Path_216" data-name="Path 216" d="M88.983,386.045h14.948a.522.522,0,0,0,0-1.045H88.983a.522.522,0,0,0,0,1.045Zm0,0" transform="translate(-82.684 -359.859)" fill="#ababc7"/>
  </g>
</svg>
