<svg xmlns="http://www.w3.org/2000/svg" width="40.481" height="42.389" viewBox="0 0 40.481 42.389">
  <g id="document" transform="translate(0 -0.001)">
    <path id="Path_212" data-name="Path 212" d="M0,38.633a3.879,3.879,0,0,0,3.967,3.757H27.257a3.894,3.894,0,0,0,3.882-3.127,3.821,3.821,0,0,0,3.3-3.709V18.631h1.893a.677.677,0,0,0,.373-.1l3.463-2.249a.681.681,0,0,0,0-1.143l-3.463-2.272a.7.7,0,0,0-.373-.13H34.442V9a.846.846,0,0,0-.3-.589L26.256.386A.686.686,0,0,0,26.1.222L26.074.2a.682.682,0,0,0-.488-.2H7.213a3.91,3.91,0,0,0-3.9,3.127A3.834,3.834,0,0,0,0,6.836ZM11.623,17.263V14.1H35.638v3.162ZM37.005,16.7V14.716l1.525.993ZM26.408,2.463l5.67,5.827H27.322a.893.893,0,0,1-.914-.876Zm-19.2-1.1H25.041V7.414a2.262,2.262,0,0,0,2.281,2.243h5.752v3.077h-22.1a.747.747,0,0,0-.718.722v.087L8.221,13.5H8.215a.7.7,0,0,0-.684.7l.021,2.976a.683.683,0,0,0,.684.678h2.019v.1a.7.7,0,0,0,.718.669h1.445l-.009,1.026a1.5,1.5,0,0,0,.408,1.054,1.266,1.266,0,0,0,.886.4H22a.684.684,0,0,0,0-1.367H13.779c0-.085,0-.043,0-.053l.01-1.058H33.074V35.553A2.489,2.489,0,0,1,30.5,37.945H7.213a2.513,2.513,0,0,1-2.6-2.392V3.865c0-.035.022-.07.022-.106a.652.652,0,0,0,0-.088,2.5,2.5,0,0,1,2.576-2.3Zm3.043,15.127H8.915l-.029-1.6,1.369.016ZM1.367,6.836a2.5,2.5,0,0,1,1.88-2.3V35.553a3.88,3.88,0,0,0,3.965,3.759H29.721a2.509,2.509,0,0,1-2.464,1.709H3.967a2.513,2.513,0,0,1-2.6-2.389Zm0,0" transform="translate(0 0)" fill="#6262a0"/>
    <path id="Path_213" data-name="Path 213" d="M89.145,269.367h11.241a.684.684,0,0,0,0-1.367H89.145a.684.684,0,0,0,0,1.367Zm0,0" transform="translate(-80.901 -245.096)" fill="#6262a0"/>
    <path id="Path_214" data-name="Path 214" d="M89.145,308.367h19.563a.684.684,0,0,0,0-1.367H89.145a.684.684,0,0,0,0,1.367Zm0,0" transform="translate(-80.901 -280.763)" fill="#6262a0"/>
    <path id="Path_215" data-name="Path 215" d="M89.145,347.367h19.563a.684.684,0,1,0,0-1.367H89.145a.684.684,0,1,0,0,1.367Zm0,0" transform="translate(-80.901 -316.43)" fill="#6262a0"/>
    <path id="Path_216" data-name="Path 216" d="M89.145,386.367h19.563a.684.684,0,0,0,0-1.367H89.145a.684.684,0,0,0,0,1.367Zm0,0" transform="translate(-80.901 -352.097)" fill="#6262a0"/>
  </g>
</svg>
