<svg xmlns="http://www.w3.org/2000/svg" width="59.407" height="55.643" viewBox="0 0 59.407 55.643">
  <g id="employee" transform="translate(0 -16.224)">
    <g id="Group_1762" data-name="Group 1762" transform="translate(0 16.224)">
      <path id="Path_1648" data-name="Path 1648" d="M58.537,63.294a.87.87,0,0,0-.87.87v5.815a.147.147,0,0,1-.147.147H54.214V57.412a.87.87,0,1,0-1.74,0V70.126h-6.39l1.729-1.9a1.391,1.391,0,0,0,.337-1.117l0-.026L46.2,55.594l.358-.538.093.066a1.362,1.362,0,0,0,2.008-.5h0l1.978-3.965,4.519,1.75a4.331,4.331,0,0,1,2.509,3.927V60.1a.87.87,0,0,0,1.741,0V56.332a6.068,6.068,0,0,0-3.591-5.538l-.017-.007L48.1,47.807V46.222a6.355,6.355,0,0,0,2.3-3.947,3.037,3.037,0,0,0,1.616-.712,3,3,0,0,0,.365-4.166V35.05a8.327,8.327,0,0,0-13.743-6.333,2.991,2.991,0,0,0-.673-1.811V24.558a8.334,8.334,0,1,0-16.668,0v2.409a2.839,2.839,0,0,0-.673,1.742,8.3,8.3,0,0,0-3.282-1.719.87.87,0,0,0-.443,1.683,6.6,6.6,0,0,1,4.91,6.376v1.3c-.038-.008-.158-.029-.163-.029a1,1,0,0,0-.208-.588c-.223-.32-.623-.719-1.91-2.1a1.376,1.376,0,0,0-1.763-.215A12.435,12.435,0,0,1,10.4,35.444a1.391,1.391,0,0,0-1.53.891l-.246.049V35.049a6.636,6.636,0,0,1,4.689-6.313.87.87,0,1,0-.5-1.667,8.4,8.4,0,0,0-4.249,2.964A8.259,8.259,0,0,0,6.883,35.05v2.409a2.836,2.836,0,0,0-.675,1.834,3,3,0,0,0,2.661,2.983,6.428,6.428,0,0,0,2.425,4.048v1.483l-7.686,2.98-.016.006A6.067,6.067,0,0,0,0,56.332V69.979a1.889,1.889,0,0,0,1.887,1.887h26.8a1.875,1.875,0,0,0,1.017-.3,1.874,1.874,0,0,0,1.017.3h26.8a1.889,1.889,0,0,0,1.887-1.887V64.165A.87.87,0,0,0,58.537,63.294ZM8.784,40.478a1.256,1.256,0,0,1-.836-1.185,1.285,1.285,0,0,1,.836-1.132Zm40.225,9.545L47.3,53.447,45.376,52.08l2.136-2.636Zm-4.891.844L41.867,48.09v-.835a7.018,7.018,0,0,0,2.261.37h0a6.434,6.434,0,0,0,2.235-.406V48.1Zm1.022,3.18-.32.482h-1.4l-.32-.482,1.022-.726ZM29.7,40.376,27.451,37.6v-.835a7.018,7.018,0,0,0,2.261.37h0a6.432,6.432,0,0,0,2.235-.406V37.6Zm1.022,3.18-.32.482H29l-.32-.482,1.022-.726ZM22.848,31.7a3.112,3.112,0,0,0,.437.083,6.428,6.428,0,0,0,2.425,4.048v1.483L23.935,38a2.983,2.983,0,0,0-.384-.606V35.05A8.313,8.313,0,0,0,22.848,31.7Zm11.477-.922a4.693,4.693,0,0,1-9.385,0V26.7a14.251,14.251,0,0,0,7.937-2.157c.785.841,1.252,1.33,1.448,1.557C34.326,28.27,34.326,29.107,34.326,30.78Zm1.66,1a3.131,3.131,0,0,0,.435-.084,8.284,8.284,0,0,0-.7,3.349v2.409a2.969,2.969,0,0,0-.344.509l-1.683-.652V35.731A6.356,6.356,0,0,0,35.986,31.784ZM26.3,38.954l2.136,2.637-1.457,1.035,0,0-.462.328-1.708-3.423Zm5.4,1.715L33.1,38.952l1.5.58-1.708,3.424-.463-.329h0l-1.46-1.037Zm.439,3.9.093.066a1.362,1.362,0,0,0,2.008-.5h0l1.469-2.944A3.055,3.055,0,0,0,37.7,42.279a6.326,6.326,0,0,0,2.428,4.046v1.483l-7.4,2.868L31.785,45.1Zm8.578,4.881,2.136,2.637-1.921,1.365-1.708-3.423Zm8.021-8.174a4.693,4.693,0,0,1-9.385,0V37.195a14.258,14.258,0,0,0,7.936-2.157c.785.841,1.252,1.33,1.448,1.557C48.742,38.762,48.742,39.6,48.742,41.271Zm2.577-1.978a1.256,1.256,0,0,1-.836,1.185V38.111A1.254,1.254,0,0,1,51.319,39.293ZM37.456,35.049a6.593,6.593,0,1,1,13.187,0v1.3c-.04-.008-.148-.027-.163-.029a1,1,0,0,0-.208-.588c-.229-.328-.624-.72-1.91-2.1a1.377,1.377,0,0,0-1.763-.215,12.458,12.458,0,0,1-7.431,2.024,1.369,1.369,0,0,0-1.466.894l-.246.049V35.049Zm.161,3.111v2.316a1.254,1.254,0,0,1-.836-1.184A1.285,1.285,0,0,1,37.617,38.161ZM36.9,28.8a1.252,1.252,0,0,1-.435.951,1.288,1.288,0,0,1-.4.234V27.619A1.255,1.255,0,0,1,36.9,28.8ZM29.633,17.964a6.6,6.6,0,0,1,6.593,6.593v1.3c-.039-.008-.148-.027-.163-.029a1.054,1.054,0,0,0-.246-.642c-.233-.315-.663-.749-1.871-2.048a1.376,1.376,0,0,0-1.763-.215,12.431,12.431,0,0,1-7.5,2.021,1.383,1.383,0,0,0-1.4.9l-.246.049V24.558h0A6.6,6.6,0,0,1,29.633,17.964Zm-6.433,9.7v2.317a1.256,1.256,0,0,1-.836-1.185A1.286,1.286,0,0,1,23.2,27.669ZM21.65,38.111a1.257,1.257,0,0,1,0,2.366Zm-.081,4.168a3.052,3.052,0,0,0,2.068-1.2l1.522,3.05h0a1.362,1.362,0,0,0,2.008.5l.093-.066.358.538-.943,5.571-7.4-2.867V46.223h0A6.361,6.361,0,0,0,21.569,42.278Zm-6.284,8.59L13.034,48.09v-.835a7.015,7.015,0,0,0,2.262.37h0a6.431,6.431,0,0,0,2.235-.406V48.1Zm1.022,3.18-.32.482h-1.4l-.32-.482,1.022-.726Zm2.372-4.6,1.5.58-1.708,3.423L18,53.118h0l-1.46-1.037Zm-8.154-8.173V37.195a14.263,14.263,0,0,0,7.936-2.157c.777.834,1.251,1.33,1.448,1.557v4.676a4.693,4.693,0,0,1-9.385,0Zm1.364,8.174,2.136,2.637-1.457,1.035,0,0-.462.328-1.708-3.423ZM6.934,70.126V57.412a.87.87,0,1,0-1.74,0V70.126H1.887a.147.147,0,0,1-.147-.147V56.332a4.332,4.332,0,0,1,2.508-3.926l4.516-1.751,1.978,3.965h0a1.362,1.362,0,0,0,2.008.5l.093-.066.358.538L11.257,67.081c0,.009,0,.017,0,.026a1.393,1.393,0,0,0,.337,1.117l1.729,1.9H6.934ZM13,67.191,14.852,56.27h.865l1.848,10.921L15.285,69.7Zm15.829,2.788a.147.147,0,0,1-.147.147H25.38V57.412a.87.87,0,1,0-1.74,0V70.126H17.25l1.729-1.9a1.391,1.391,0,0,0,.337-1.117l0-.026L17.368,55.594l.358-.538.093.066a1.362,1.362,0,0,0,2.008-.5h0l1.978-3.965,4.519,1.75a4.322,4.322,0,0,1,2.509,3.927V69.979Zm.87-16.81a6.2,6.2,0,0,0-1.419-1.577l.984-5.814h.865l.985,5.817A6.2,6.2,0,0,0,29.7,53.17Zm6.064,16.956h0V57.412a.87.87,0,0,0-1.74,0V70.126H30.721a.147.147,0,0,1-.147-.147V56.332a4.16,4.16,0,0,1,1.015-2.788,4.684,4.684,0,0,1,1.492-1.138L37.6,50.655l1.978,3.965h0a1.362,1.362,0,0,0,2.008.5l.093-.066.358.538L40.09,67.081c0,.009,0,.017,0,.026a1.393,1.393,0,0,0,.337,1.117l1.729,1.9H35.767Zm6.069-2.935L43.685,56.27h.865L46.4,67.191,44.118,69.7Z" transform="translate(0 -16.224)"/>
    </g>
  </g>
</svg>
