<svg xmlns="http://www.w3.org/2000/svg" viewBox="-449 382.8 300 244.2"><path d="M-247.5 396.8c0 .7-.1 1.4-.1 2.1v33.7c0 1.6-.5 2-2 1.9-6.1-.1-12.2-.1-18.4.1-2.1 0-4.2.4-6.2.7-3.9.7-6.7 3.9-6.8 8.2-.3 7.9-.3 15.8-.4 23.8 0 1.4.9 1.2 1.8 1.2h32.2c-1.3 12.7-2.7 25.1-4 37.7h-29.9v107.7c0 .6 0 1.3-.1 1.9h-40.9V506.4h-27.3c0-.8-.1-1.3-.1-1.9v-33.9c0-1.6.5-2 2-1.9 7.8.1 15.6 0 23.4.1 1.7 0 2-.5 2-2.1 0-10.1 0-20.3.4-30.4.3-7.4 1.8-14.6 5.2-21.2 3.8-7.3 9.6-12.3 17.3-14.8 4.3-1.4 8.8-2 13.3-2.9.6-.1 1.2-.3 1.9-.4 12.2-.2 24.4-.2 36.7-.2z"/></svg>