<svg xmlns="http://www.w3.org/2000/svg" width="35.121" height="35.118" viewBox="0 0 35.121 35.118">
  <g id="finance" transform="translate(0 -0.023)">
    <g id="Group_838" data-name="Group 838" transform="translate(10.478 26.352)">
      <g id="Group_837" data-name="Group 837">
        <path id="Path_204" data-name="Path 204" d="M154.108,384.409a.715.715,0,0,0-.039-.129.7.7,0,0,0-.063-.118.666.666,0,0,0-.189-.189.677.677,0,0,0-.119-.063.644.644,0,0,0-.128-.039.676.676,0,0,0-.268,0,.665.665,0,0,0-.129.039.7.7,0,0,0-.118.063.667.667,0,0,0-.189.189.651.651,0,0,0-.063.118.665.665,0,0,0-.039.129.659.659,0,0,0,0,.268.644.644,0,0,0,.039.128.635.635,0,0,0,.063.119.668.668,0,0,0,.189.189.692.692,0,0,0,.118.063.665.665,0,0,0,.129.039.66.66,0,0,0,.268,0,.644.644,0,0,0,.128-.039.68.68,0,0,0,.119-.063.667.667,0,0,0,.189-.189.677.677,0,0,0,.063-.119.692.692,0,0,0,.039-.128.659.659,0,0,0,0-.268Z" transform="translate(-152.75 -383.857)"/>
      </g>
    </g>
    <g id="Group_840" data-name="Group 840" transform="translate(0 21.281)">
      <g id="Group_839" data-name="Group 839">
        <path id="Path_205" data-name="Path 205" d="M31.553,315.757l-.008-.02c-.631-1.477-2.112-2.023-3.864-1.425L22.9,315.633a3.133,3.133,0,0,0-1.94-1.91l-.018-.006-5.253-1.783a5.418,5.418,0,0,0-4.371-2.011,5.485,5.485,0,0,0-4.284,2.569H.686a.686.686,0,0,0-.686.686v8.648a.686.686,0,0,0,.686.686H4.764a.686.686,0,0,0,.686-.686v-.592H7.363a.686.686,0,0,0,.686-.686v-.2a4.864,4.864,0,0,1,2.506.9,41.51,41.51,0,0,0,4.121,2.1l.03.013a6.157,6.157,0,0,0,2.207.416,5.468,5.468,0,0,0,2.273-.487l10.563-3.782.055-.023A2.928,2.928,0,0,0,31.553,315.757ZM4.078,321.14H1.372v-7.276H4.078Zm2.6-1.278H5.45v-6H6.677Zm22.579-1.629L18.7,322.013l-.031.012-.028.012a4.446,4.446,0,0,1-3.416.058,39.735,39.735,0,0,1-3.983-2.034,6.174,6.174,0,0,0-3.191-1.085V313.45a4.236,4.236,0,0,1,3.271-2.157,3.958,3.958,0,0,1,3.358,1.578.686.686,0,0,0,.364.29l5.452,1.85a1.539,1.539,0,0,1,1.119,1.816,1.337,1.337,0,0,1-1.642.923L13.824,315.8a.686.686,0,0,0-.414,1.308l6.156,1.951.02.006a2.692,2.692,0,0,0,2.059-.239,2.69,2.69,0,0,0,1.287-1.625q.024-.083.042-.167l5.15-1.427c.744-.254,1.72-.346,2.155.656C30.729,317.441,29.56,318.087,29.256,318.232Z" transform="translate(0 -309.922)"/>
      </g>
    </g>
    <g id="Group_842" data-name="Group 842" transform="translate(23.271 8.493)">
      <g id="Group_841" data-name="Group 841">
        <path id="Path_206" data-name="Path 206" d="M340.609,124.05a.667.667,0,0,0-.04-.129.652.652,0,0,0-.063-.118.666.666,0,0,0-.189-.189.7.7,0,0,0-.118-.063.683.683,0,0,0-.4-.039.646.646,0,0,0-.128.039.678.678,0,0,0-.119.063.667.667,0,0,0-.189.189.7.7,0,0,0-.063.118.667.667,0,0,0-.039.129.658.658,0,0,0,0,.268.647.647,0,0,0,.039.128.678.678,0,0,0,.063.119.667.667,0,0,0,.189.189.679.679,0,0,0,.119.063.694.694,0,0,0,.128.039.675.675,0,0,0,.134.014.687.687,0,0,0,.134-.014.725.725,0,0,0,.128-.039.7.7,0,0,0,.118-.063.666.666,0,0,0,.189-.189.636.636,0,0,0,.063-.119.647.647,0,0,0,.04-.128.695.695,0,0,0,0-.268Z" transform="translate(-339.25 -123.498)"/>
      </g>
    </g>
    <g id="Group_844" data-name="Group 844" transform="translate(2.037 0.023)">
      <g id="Group_843" data-name="Group 843">
        <path id="Path_207" data-name="Path 207" d="M62.089,2.346H58.01a.686.686,0,0,0-.686.686v.592H55.412a.686.686,0,0,0-.686.686v.2a4.863,4.863,0,0,1-2.506-.9A41.507,41.507,0,0,0,48.1,1.5l-.03-.013a5.836,5.836,0,0,0-4.479.07l-2.76.988L38.5.224a.686.686,0,0,0-.97,0L29.894,7.863a.68.68,0,0,0,0,.97L42.947,21.886a.741.741,0,0,0,.97,0l6.974-6.974c.181.016.369.024.564.024a5.485,5.485,0,0,0,4.284-2.569h6.349a.686.686,0,0,0,.686-.686V3.032A.686.686,0,0,0,62.089,2.346ZM38.018,1.679l1.563,1.563a2.991,2.991,0,0,1-3.127,0Zm-5.1,8.232L31.349,8.348l1.563-1.563a2.991,2.991,0,0,1,0,3.127ZM43.432,20.43l-1.563-1.563a2.987,2.987,0,0,1,3.126,0Zm2.551-2.551a4.359,4.359,0,0,0-5.1,0L33.9,10.9a4.359,4.359,0,0,0,0-5.1l1.565-1.565a4.359,4.359,0,0,0,5.1,0l1.484,1.484a2.719,2.719,0,0,0-2.041,1.5,3.91,3.91,0,1,0,4.5,4.84l2.316.786a4.379,4.379,0,0,0,.727,3.477Zm-4.17-6.744.018.006,1.372.466a2.538,2.538,0,1,1-3.445-2.9A3.037,3.037,0,0,0,41.813,11.135Zm6.725,4.189A3,3,0,0,1,48.1,13.9a5.334,5.334,0,0,0,1.21.655Zm6.187-3.917a4.236,4.236,0,0,1-3.27,2.157,4.993,4.993,0,0,1-.716-.05h0a3.929,3.929,0,0,1-2.541-1.39c-.014-.021-.074-.1-.082-.112a.683.683,0,0,0-.378-.314L42.282,9.846a1.539,1.539,0,0,1-1.12-1.815h0v0a1.336,1.336,0,0,1,1.641-.92L48.95,9.055a.686.686,0,0,0,.414-1.308L44.477,6.2l-.043-.043h0L41.9,3.624l2.175-.779.024-.009.007,0,.028-.012a4.446,4.446,0,0,1,3.416-.058A39.735,39.735,0,0,1,51.535,4.8a6.173,6.173,0,0,0,3.191,1.085Zm2.6-.413H56.1V5h1.227Zm4.078,0H58.7V3.718H61.4Z" transform="translate(-29.691 -0.023)"/>
      </g>
    </g>
  </g>
</svg>
