<svg id="Layer_1" data-name="Layer 1" xmlns="http://www.w3.org/2000/svg" viewBox="0 0 216.94 56.76"><defs><style>.cls-1{fill:#444;}</style></defs><title>Forbes</title><path class="cls-1" d="M53.9,56.6a16.94,16.94,0,0,1-9.62-4.65,17.47,17.47,0,0,1-4.48-7.53,27.84,27.84,0,0,1,0-16A18.83,18.83,0,0,1,49,17.56c5.81-2.92,14-2.73,19.37.43,4.84,2.85,7.78,7.92,8.59,14.84a36.44,36.44,0,0,1-.31,8.42C75,48.8,70.33,54.07,63.47,56.05a22.06,22.06,0,0,1-2.55.56,42,42,0,0,1-7,0Zm5.66-3a6.35,6.35,0,0,0,3.19-3c1.5-2.87,2.17-7.11,2.19-13.84,0-8.44-1.3-13.81-4.1-16.62a4.25,4.25,0,0,0-3.5-1.55C54,18.57,51.9,22,51.07,28.88a78.13,78.13,0,0,0,0,13.38c1.18,8.51,4.23,12.57,8.5,11.3Zm61.33,3c-1.55-.16-6.28-.94-7.93-1.32L111.82,55l.09-6.1c.21-14.69.24-22.71.1-30.51-.14-7.64-.18-8.45-.47-9.58A5.12,5.12,0,0,0,110,5.94a5.38,5.38,0,0,0-1.52-.56c-1.94-.44-1.84-.37-1.89-1.25,0-.51,0-.85.16-1S122.83,0,123.33,0c.15,0,.17,2,.09,9-.05,5-.06,9,0,9s.63-.25,1.29-.56a15.74,15.74,0,0,1,6.55-1.43,13.87,13.87,0,0,1,3.54.17c6,1.24,10.45,6.16,12,13.28a37.49,37.49,0,0,1,.29,8.79,28.73,28.73,0,0,1-1.56,6.35c-2.57,6.5-8.08,10.75-15.4,11.85a58.42,58.42,0,0,1-9.24.06Zm6.25-3.1a5.78,5.78,0,0,0,3-1.52c2.37-2.13,4.15-6.53,4.85-12a46,46,0,0,0-.07-9.13c-.86-5-2.69-8.3-5.37-9.63a4.19,4.19,0,0,0-2.6-.59,8.68,8.68,0,0,0-2.45.3l-1,.3-.08,5.7c-.1,7.3.14,25.58.34,26.11.13.33.27.41.9.46a7.44,7.44,0,0,0,2.55,0Zm38.59,3c-7.74-1.4-13.27-6.88-15.08-15a22.82,22.82,0,0,1-.39-4.45,22.28,22.28,0,0,1,1.11-8.5,18.3,18.3,0,0,1,9.5-11.23c4.84-2.36,11.46-2.51,15.74-.37,4.82,2.42,7.66,7.24,8.38,14.25a20.49,20.49,0,0,1,.12,2.5l-.05.78-11.54,0-11.54,0L162,36a19.38,19.38,0,0,0,2,8.38,10,10,0,0,0,2.13,2.82c2.49,2.52,5,3.49,8.89,3.49a11.91,11.91,0,0,0,7-1.95,5.37,5.37,0,0,1,1.35-.7c.33,0,1.08,1,1.08,1.39,0,.69-2.24,2.9-4.42,4.38A20,20,0,0,1,173,56.53,29.23,29.23,0,0,1,165.73,56.52Zm4.9-25.42,2.71-.09-.1-1.93c-.34-6.8-2-10.51-4.71-10.51-2.93,0-5.28,3.77-6.25,10.05a19,19,0,0,0-.22,2v.63l2.92,0c1.61,0,4.15-.09,5.64-.14Zm26.3,25.57a43,43,0,0,1-8.67-1.9l-.72-.31-.1-3.56c-.05-2-.12-4.58-.14-5.82l0-2.26.43-.21a3.33,3.33,0,0,1,1.06-.24l.63,0,.54,1.33c2.1,5.17,4.57,8,7.78,8.81a10.28,10.28,0,0,0,4.44,0,5.51,5.51,0,0,0,4-5.46c0-3.12-1.7-4.62-8.18-7.15-4-1.57-5.41-2.37-7.08-4.08A9.87,9.87,0,0,1,188,28.94a11.49,11.49,0,0,1,3.35-9c2.46-2.55,5.66-3.93,10-4.33a32.23,32.23,0,0,1,12.8,1.77l.56.24.1,3.18c.06,1.75.11,4.09.13,5.2l0,2-.76.28c-1.19.44-1.27.39-1.94-1.37-1.86-4.93-4-7.27-7.39-8a5.05,5.05,0,0,0-5,1.37,5,5,0,0,0-1.44,3.51,4.32,4.32,0,0,0,1.23,3.71c1.27,1.38,3.34,2.58,7.47,4.31,5.06,2.11,7.47,3.91,8.78,6.53a10.36,10.36,0,0,1,1,5.68,9.69,9.69,0,0,1-.57,3.69c-1.46,4.3-4.75,7.13-9.83,8.46-1.72.45-2,.47-5.39.51-2,0-3.87,0-4.21,0ZM.21,55.74C.08,55.68,0,55.29,0,54.57c0-1.29-.08-1.23,2.42-1.7C4.35,52.52,5,52.16,5.88,51c1.64-2.15,2-6.3,2-23.36,0-16-.31-19.4-2-21.87-.75-1.1-2-1.7-4.15-2L.09,3.67,0,2.39,0,1.11.51,1C.8,1,10.71.95,22.55,1L44.06,1l.1.62c.06.34.15,3.86.2,7.82l.1,7.2L43.36,17c-1.67.51-1.66.51-2.41-1.47-1.85-4.88-4-7.7-6.86-9.12-2-1-2.92-1.1-8.56-1.1H20.62l-.08.82c-.16,1.54-.41,11.41-.41,16.06v4.64h1.44c.79,0,2.36-.06,3.48-.13a7,7,0,0,0,2.89-.52c1.73-.8,2.91-2.56,3.63-5.43l.37-1.48,1.27,0,1.27,0V37.92l-1.27,0-1.27,0-.36-1.48c-.68-2.78-2-4.78-3.6-5.49-.75-.33-2.59-.52-6.16-.63l-1.68-.05v3.52c0,3.84.21,9,.48,11.84.38,3.93,1.38,6.1,3.18,6.88a13.92,13.92,0,0,0,2.42.54,14.38,14.38,0,0,1,2.07.41c.38.2.4,2.23,0,2.37s-27.82.1-28.1,0Zm76.88,0c-.14-.09-.19-.45-.16-1.21l0-1.08.55-.12L79,53a3.42,3.42,0,0,0,2.87-2.71c.4-1.31.57-5.49.58-13.89,0-10.28-.2-12.7-1.24-14.08-.56-.75-1-1-2.34-1.22l-1.58-.31c-.31-.07-.35-.17-.35-.93s0-.88.35-1c.47-.19,15.92-3.28,16.41-3.28h.39L94,17.9c0,1.27-.11,3.11-.15,4.09l-.07,1.79.56-1a14,14,0,0,1,6.47-6.46,8.78,8.78,0,0,1,4.26-.87c2.15,0,4.3.7,4.3,1.4,0,.47-3.79,10.48-4,10.56a6.27,6.27,0,0,1-1.64-.63,10.89,10.89,0,0,0-4.76-1.19,7.51,7.51,0,0,0-4.85,1.6c-.36.38-.36.41-.45,6.14s.1,12.6.42,15.38c.27,2.37.9,3.54,2.2,4.08a23.3,23.3,0,0,0,4.08.56,3,3,0,0,1,.08,1.21l0,1.21-11.54,0c-6.35,0-11.63,0-11.74-.09Z"/></svg>