<svg xmlns="http://www.w3.org/2000/svg" width="142" height="142" viewBox="0 0 142 142">
  <g id="hr" transform="translate(22 15.781)">
    <circle id="Ellipse_58" data-name="Ellipse 58" cx="71" cy="71" r="71" transform="translate(-22 -15.781)" fill="#6262a0"/>
    <g id="Group_1014" data-name="Group 1014" transform="translate(-1 -1)">
      <path id="Path_1102" data-name="Path 1102" d="M50.246,25.3c1.8,0,3.4-1.284,4.383-3.259a10.219,10.219,0,0,0,1-3.785,5.95,5.95,0,0,0,.061-.783l-.335-.062h-.034l-1.834-.233c1.007-.581.475-1.852.226-2.277-.073-.126-.125-.2-.125-.2s-.027.021-.042.031a21.762,21.762,0,0,1-5.211,2.847,21.677,21.677,0,0,1-3.462.871C45.231,22.314,47.5,25.3,50.246,25.3Z" fill="none"/>
      <path id="Path_1103" data-name="Path 1103" d="M17.783,77.514c2.821,0,5.151-3.064,5.518-7.039a2.726,2.726,0,0,0-.885.414s.63-3.739-.7-4.265a10.782,10.782,0,0,1-3.933.948,10.814,10.814,0,0,1-3.934-.948c-1.33.525-.7,4.265-.7,4.265a2.687,2.687,0,0,0-.885-.414C12.63,74.449,14.96,77.514,17.783,77.514Z" fill="none"/>
      <path id="Path_1104" data-name="Path 1104" d="M52.936,26.247l.721-1.5a4.634,4.634,0,0,1-6.888-.068L47.8,26.984c-.241-.4-1.174-.6-2.274-.693a4.234,4.234,0,0,0,2.842,1.73l1.876,3.049,1.877-3.049c1.656-.375,2.857-1.232,3.026-2.253C54.084,25.742,53.177,25.85,52.936,26.247Z" fill="none"/>
      <path id="Path_1105" data-name="Path 1105" d="M85.4,79.655l.721-1.5a4.633,4.633,0,0,1-6.888-.067l1.033,2.306c-.24-.4-1.173-.6-2.273-.693a4.235,4.235,0,0,0,2.842,1.73l1.877,3.049,1.876-3.049c1.656-.376,2.857-1.232,3.027-2.253C86.549,79.15,85.641,79.258,85.4,79.655Z" fill="none"/>
      <path id="Path_1106" data-name="Path 1106" d="M87.789,70.816l-1.834-.233c1.007-.581.474-1.852.226-2.277-.074-.126-.125-.2-.125-.2l-.042.031a18.816,18.816,0,0,1-8.674,3.717c.355,3.868,2.625,6.852,5.37,6.852,1.8,0,3.4-1.283,4.384-3.259a10.257,10.257,0,0,0,1-3.785,6.124,6.124,0,0,0,.061-.783l-.336-.062h-.034Z" fill="none"/>
      <path id="Path_1107" data-name="Path 1107" d="M11.479,70.243c.005.061.01.12.016.18.4,4.55,3.064,8.065,6.289,8.065s5.887-3.516,6.289-8.065c0-.06.01-.119.015-.18.029-.2.048-.4.06-.6.008-.139.013-.278.013-.419a7.137,7.137,0,0,0-.073-1.019,6.489,6.489,0,0,0-6.3-5.693,6.49,6.49,0,0,0-6.3,5.693,7.137,7.137,0,0,0-.073,1.019c0,.141.006.28.013.419C11.431,69.847,11.45,70.046,11.479,70.243Zm2.37-3.619a10.783,10.783,0,0,0,3.934.948,10.8,10.8,0,0,0,3.933-.948c1.33.525.7,4.265.7,4.265a2.705,2.705,0,0,1,.885-.414c-.366,3.975-2.7,7.039-5.518,7.039s-5.152-3.064-5.519-7.039a2.708,2.708,0,0,1,.885.414S12.519,67.149,13.849,66.624Z" fill="#fff"/>
      <path id="Path_1108" data-name="Path 1108" d="M23.3,77.661a.356.356,0,0,1-.044-.006c-.117-.015-.235-.029-.354-.04,0,.013,0,.024,0,.036,0,.035-.008.069-.011.1a1.7,1.7,0,0,1-.174.573,42.237,42.237,0,0,1-3.807,6.2l-.243-3.488a2.055,2.055,0,0,0,.832-.811,1.606,1.606,0,0,0,.22-.782,5.037,5.037,0,0,1-1.78.391c-.051,0-.1,0-.154,0s-.1,0-.154,0a5.046,5.046,0,0,1-1.781-.391,1.607,1.607,0,0,0,.221.782,2.049,2.049,0,0,0,.832.811l-.244,3.488a42.429,42.429,0,0,1-3.807-6.2,1.7,1.7,0,0,1-.173-.573c0-.035-.01-.069-.012-.1,0-.012,0-.023,0-.036-.12.011-.237.025-.355.04a.311.311,0,0,1-.044.006A8.437,8.437,0,0,0,5,86.017c0,4.66,3.778,4.649,8.438,4.649h8.689c4.66,0,8.438.011,8.438-4.649A8.437,8.437,0,0,0,23.3,77.661Z" fill="#fff"/>
      <path id="Path_1109" data-name="Path 1109" d="M46.069,37.318h8.354c4.48,0,8.112.792,8.112-3.688a8.117,8.117,0,0,0-5.673-7.736c1.393.156,2.613.4,2.613.4-2.777-1.527-2.705-7.007-2.705-7.007.485-10.614-6.52-10.059-6.52-10.059l-.006.017-.005-.017s-7-.555-6.52,10.059c0,0,.072,5.48-2.706,7.007,0,0,.748-.051,1.748-.07a8.112,8.112,0,0,0-4.806,7.41C37.958,38.11,41.589,37.318,46.069,37.318Zm6.054-9.3L50.246,31.07,48.37,28.021a4.236,4.236,0,0,1-2.842-1.73c1.1.1,2.033.3,2.274.693l-1.034-2.305a4.634,4.634,0,0,0,6.888.068l-.721,1.5c.241-.4,1.148-.5,2.214-.479C54.98,26.79,53.779,27.646,52.123,28.021ZM48.337,17.575a21.762,21.762,0,0,0,5.211-2.847c.015-.01.028-.02.042-.031s.052.074.125.2c.249.426.781,1.7-.226,2.277l1.834.233h.034l.335.062a5.77,5.77,0,0,1-.061.783,10.2,10.2,0,0,1-1,3.785c-.985,1.975-2.581,3.259-4.383,3.259-2.746,0-5.015-2.983-5.371-6.852A21.417,21.417,0,0,0,48.337,17.575Z" fill="#fff"/>
      <path id="Path_1110" data-name="Path 1110" d="M89.328,79.3c1.392.156,2.613.4,2.613.4-2.777-1.526-2.706-7.007-2.706-7.007.485-10.614-6.52-10.059-6.52-10.059l0,.016-.006-.016s-7-.556-6.52,10.059c0,0,.072,5.48-2.705,7.007,0,0,.748-.05,1.747-.069a8.113,8.113,0,0,0-4.806,7.41c0,4.479,3.631,3.688,8.112,3.688h8.354c4.48,0,8.112.792,8.112-3.688A8.11,8.11,0,0,0,89.328,79.3ZM84.587,81.43l-1.876,3.049L80.834,81.43a4.238,4.238,0,0,1-2.842-1.73c1.1.1,2.033.3,2.273.693l-1.033-2.306a4.633,4.633,0,0,0,6.888.067l-.721,1.5c.241-.4,1.149-.5,2.215-.479C87.444,80.2,86.243,81.054,84.587,81.43ZM88.1,71.661a10.238,10.238,0,0,1-1,3.785c-.985,1.976-2.582,3.259-4.384,3.259-2.745,0-5.015-2.983-5.37-6.852a18.816,18.816,0,0,0,8.674-3.717c.014-.011.027-.021.042-.031s.051.074.125.2c.248.426.781,1.7-.226,2.277l1.834.233h.033l.336.062A6.111,6.111,0,0,1,88.1,71.661Z" fill="#fff"/>
      <path id="Path_1111" data-name="Path 1111" d="M17.783,60.75A1.252,1.252,0,0,0,19.034,59.5V51.366H81.459V59.5a1.251,1.251,0,0,0,2.5,0V50.121s0,0,0-.006a1.252,1.252,0,0,0-1.252-1.251H51.5V40.5a1.251,1.251,0,1,0-2.5,0v8.363H17.783a1.251,1.251,0,0,0-1.251,1.251V59.5A1.251,1.251,0,0,0,17.783,60.75Z" fill="#fff"/>
    </g>
  </g>
</svg>
