<svg xmlns="http://www.w3.org/2000/svg" width="64.756" height="57.92" viewBox="0 0 64.756 57.92">
  <g id="human-resources_1_" data-name="human-resources (1)" transform="translate(0 0.001)">
    <path id="Path_1655" data-name="Path 1655" d="M247.009,365.969h-.038a1.265,1.265,0,0,0,0,2.53h.038a1.265,1.265,0,0,0,0-2.53Zm0,0" transform="translate(-214.631 -319.683)"/>
    <path id="Path_1656" data-name="Path 1656" d="M187.415,186.526a1.28,1.28,0,0,0,.139-.158,11.13,11.13,0,1,0-16.844,0,1.282,1.282,0,0,0,.144.163,11.113,11.113,0,0,0,16.561,0Zm-14.207-1.2a4.531,4.531,0,0,1,4.054-2.483H181a4.531,4.531,0,0,1,4.054,2.483,8.576,8.576,0,0,1-11.851,0Zm5.926-5.012a2.5,2.5,0,1,1,2.5-2.5A2.506,2.506,0,0,1,179.133,180.31Zm0-9.812a8.6,8.6,0,0,1,7.568,12.683,7.044,7.044,0,0,0-3.437-2.5,5.032,5.032,0,1,0-8.261,0,7.044,7.044,0,0,0-3.437,2.5,8.6,8.6,0,0,1,7.568-12.683Zm0,0" transform="translate(-146.755 -146.724)"/>
    <path id="Path_1657" data-name="Path 1657" d="M59.935,143.993a5.033,5.033,0,1,0-8.256,0,7.1,7.1,0,0,0-3.343,2.386,16.445,16.445,0,1,0-31.906.015,7.1,7.1,0,0,0-3.355-2.4,5.032,5.032,0,1,0-8.256,0A7.088,7.088,0,0,0,0,150.7v.837A1.265,1.265,0,0,0,1.265,152.8H16.632a1.265,1.265,0,0,0,1.265-1.265V150.7c0-.191-.01-.379-.025-.566a16.451,16.451,0,0,0,8.98,7.767,1.265,1.265,0,1,0,.85-2.382,13.913,13.913,0,1,1,9.493-.051,1.265,1.265,0,0,0,.876,2.373,16.507,16.507,0,0,0,2.5-1.171L50.6,166.7a4.289,4.289,0,1,0,6.065-6.065L48.833,152.8H63.491a1.265,1.265,0,0,0,1.265-1.265V150.7a7.087,7.087,0,0,0-4.82-6.706ZM8.948,138.616a2.5,2.5,0,1,1-2.5,2.5A2.506,2.506,0,0,1,8.948,138.616Zm-6.4,11.655a4.554,4.554,0,0,1,4.527-4.119H10.82a4.554,4.554,0,0,1,4.527,4.119Zm52.332,14.642a1.761,1.761,0,0,1-2.488,0l-9.7-9.7a16.5,16.5,0,0,0,2.486-2.49l9.7,9.7a1.762,1.762,0,0,1,0,2.488Zm.926-26.3a2.5,2.5,0,1,1-2.5,2.5A2.506,2.506,0,0,1,55.808,138.616Zm-6.4,11.655a4.554,4.554,0,0,1,4.527-4.119h3.743a4.554,4.554,0,0,1,4.527,4.119Zm0,0" transform="translate(0 -110.036)"/>
    <path id="Path_1658" data-name="Path 1658" d="M213.323,12a1.264,1.264,0,0,0,1.788,0l9.84-9.84A1.265,1.265,0,0,0,223.163.371l-8.946,8.946-3.891-3.891a1.265,1.265,0,0,0-1.789,1.788Zm0,0" transform="translate(-181.839)"/>
  </g>
</svg>
