<svg xmlns="http://www.w3.org/2000/svg" viewBox="0 0 52.4 52.4"><path d="M26.2 0c3.2 0 6.3.1 9.4.1 2.1 0 4.1.2 6.1.8 4.9 1.4 8.1 4.5 9.6 9.3.5 1.7.8 3.5.8 5.3.2 6.2.2 12.4.1 18.6 0 1.8-.1 3.7-.4 5.5-.5 3.5-1.9 6.6-4.7 9-1.6 1.4-3.5 2.4-5.6 2.9-1.7.4-3.4.6-5.1.7-6.1.2-12.2.2-18.3.1-1.8 0-3.7-.1-5.5-.4-3-.5-5.8-1.6-8-3.7S1.1 43.6.5 40.7C.1 39 0 37.3 0 35.5c0-5.7 0-11.5.1-17.4 0-1.7.1-3.4.3-5 .4-3.7 1.9-7 4.9-9.5 1.8-1.6 4-2.5 6.3-3C13.3.2 15 .1 16.7.1 19.9.1 23 0 26.2 0zm0 47.6s0 .1 0 0c3.2 0 6.4 0 9.6-.1 1.5 0 2.9-.1 4.4-.5 1.8-.4 3.4-1.2 4.7-2.6 1.4-1.5 2.1-3.2 2.5-5.2.3-1.5.3-3.1.3-4.7.1-6.1.1-12.1 0-18.2 0-1.4-.1-2.8-.5-4.2-.5-2.2-1.5-4-3.3-5.3-1.3-1-2.8-1.5-4.4-1.8-1.5-.3-3-.3-4.6-.3-6.1-.1-12.1-.1-18.2 0-1.4 0-2.8.1-4.2.5-2.1.5-4 1.5-5.3 3.3-1 1.3-1.5 2.8-1.8 4.5-.3 1.5-.3 3.1-.3 4.6-.1 6.1-.1 12.1 0 18.2 0 1.4.1 2.8.5 4.2.5 2.2 1.6 4 3.4 5.4 1.3 1 2.8 1.5 4.4 1.8 1.6.3 3.3.3 5 .4h7.8z"/><path d="M12.7 26.2c0-7.5 6-13.4 13.6-13.4 7.3 0 13.3 6.1 13.3 13.5 0 7.5-6.1 13.5-13.6 13.4-7.2-.1-13.2-6-13.3-13.5zm13.5 8.7c4.8 0 8.7-3.9 8.7-8.7 0-4.8-3.9-8.7-8.7-8.7-4.8 0-8.7 3.9-8.7 8.7 0 4.8 3.9 8.7 8.7 8.7zm14-19.5c-1.7 0-3.1-1.4-3.1-3.1 0-1.7 1.4-3.1 3.1-3.1 1.7 0 3.2 1.4 3.2 3.1-.1 1.7-1.5 3.1-3.2 3.1z"/></svg>