<svg viewBox="0 0 240 55" xmlns="http://www.w3.org/2000/svg">
  <g fill="none" fill-rule="evenodd">
    <path d="M3.11 0h13.209v.426c-3.315.613-3.527 2.076-3.527 2.076-.24.88-.16 2.77-.16 2.77V39.032C12.075 49.416.352 54.687.352 54.687c-.638 0-.213-.534-.213-.534C7.353 46.86 7.142 42.04 7.142 42.04V3.514C7.142.958 4.436.958 4.436.958 3.269.746 3.11 0 3.11 0M32.022 41.615c-4.424 0-8.01-4.38-8.01-9.786 0-5.404 3.586-9.783 8.01-9.783 4.424 0 8.011 4.379 8.011 9.783 0 5.405-3.587 9.786-8.01 9.786m0-24.096c-7.18 0-12.998 6.378-12.998 14.244 0 7.867 5.818 14.244 12.997 14.244 7.178 0 12.998-6.377 12.998-14.244 0-7.866-5.82-14.244-12.998-14.244" fill="#010101"/>
    <path d="M59.97 42.039c-4.352 0-7.881-4.511-7.881-10.077 0-5.565 3.529-10.076 7.88-10.076 4.352 0 7.88 4.51 7.88 10.076 0 5.566-3.528 10.077-7.88 10.077m.156-24.147c-3.059 0-5.86 1.23-8.036 3.272V6.95h-5.213v34.026h-3.183v4.233h8.396v-2.474c2.175 2.043 4.977 3.273 8.036 3.273 6.923 0 12.534-6.294 12.534-14.057 0-7.764-5.611-14.058-12.534-14.058" fill="#010101"/>
    <path d="M87.264 42.039c-4.352 0-7.881-4.511-7.881-10.077 0-5.565 3.529-10.076 7.88-10.076 4.352 0 7.881 4.51 7.881 10.076 0 5.566-3.529 10.077-7.88 10.077m.155-24.147c-3.058 0-5.86 1.23-8.036 3.272V6.95H74.17v34.026h-3.183v4.233h8.396v-2.474c2.175 2.043 4.978 3.273 8.036 3.273 6.923 0 12.534-6.294 12.534-14.057 0-7.764-5.611-14.058-12.534-14.058M105.857 29.127h-2.907v4.26h2.699a11.72 11.72 0 0 1-.113-1.558c0-.938.116-1.842.32-2.702" fill="#010101"/>
    <path d="M126.731 33.387a15.305 15.305 0 0 0-.141-4.26c-1.144-6.607-6.5-11.607-12.94-11.607-7.27 0-13.165 6.376-13.165 14.242 0 7.869 5.895 14.245 13.166 14.245 3.532 0 7.412-1.172 9.776-3.62l-3.66-2.822c-1.36 1.247-4.273 2.049-6.116 2.049-4.04 0-7.383-3.565-8.002-8.227h-2.698v-4.26h2.906c.973-4.088 4.09-7.082 7.794-7.082 3.704 0 6.822 2.994 7.795 7.083h-15.59a11.615 11.615 0 0 0-.32 2.701c0 .532.045 1.05.113 1.558h21.082z" fill="#010101"/>
    <path d="M124.7 18.318v4.26h3.077v22.684h8.966v-4.26h-4.085V28.275c0-5.114 4.775-5.858 4.775-5.858 2.652 0 3.925.533 3.925.533v-5.06c-5.569-1.17-8.327 2.024-8.327 2.024v-1.623l-8.33.026zM143.481 18.264v4.42h3.13v22.79h8.223v-4.472h-3.237v-12.46c0-6.496 6.314-6.124 6.314-6.124 5.516 0 4.88 5.005 4.88 5.005v18.052h8.17v-4.42h-3.13V28.17c0-6.071 6.154-5.804 6.154-5.804 4.934 0 4.774 4.632 4.774 4.632v18.264h7.746v-4.259h-2.441V27.583c0-9.211-8.7-9.95-8.7-9.95-7.427-.434-8.912 3.773-8.912 3.773-1.75-3.804-8.489-3.772-8.489-3.772-4.137 0-6.312 2.654-6.312 2.654v-1.916l-8.17-.108zM202.645 39.338s-1.87 2.876-6.684 2.117c0 0-3.9-.6-3.9-4.432 0 0-.198-4.436 5.413-4.436h7.28v.202s.319 3.393-2.109 6.55zm33.992 1.718v-13.74c0-8.36-6.684-9.37-6.684-9.37-7.161-1.12-9.868 2.236-9.868 2.236v-1.97h-5.145v22.844h-5.04V26.997c0-10.116-10.292-9.28-10.292-9.28-4.562-.144-9.231 2.624-9.231 2.624l1.963 3.888c5.358-3.355 9.39-1.944 9.39-1.944 4.138 1.356 3.025 5.99 3.025 5.99-8.807 0-12.52.959-12.52.959-6.102 2.502-5.519 7.508-5.519 7.508 0 8.147 7.534 9.052 7.534 9.052 7.692.746 10.345-2.875 10.345-2.875v2.556h15.49V28.967c0-7.827 7.374-6.496 7.374-6.496 4.032 0 4.138 4.368 4.138 4.368v18.636h7.904v-4.419h-2.864z" fill="#010101"/>
    <g transform="translate(6.575 .917)">
      <path d="M9.187 8.641c.557-.24 1.3-.453 1.3-.453.716-.452.424-1.037.424-1.037-.478-2.184-.053-4.608-.053-4.608C11.23.681 13.803.786 13.803.786c2.758.4 2.996 3.222 2.996 3.222.027 1.252-.583 2.024-.583 2.024-1.115 2.05-.69 3.327-.69 3.327 2.574.533 3.024.64 3.024.64 0 2.475.452 6.577.452 6.602.131 4.073.424 5.939.424 5.939.53 2.554 2.148 4.366 2.148 4.366 1.406 1.411.797 2.66.797 2.66-1.7.961-3.131.641-3.131.641-1.088 0-.981.346-.981.346 0 3.622.132 4.526.132 4.526.213 2.077.292 3.276.292 3.276.371 1.888.875 2.766.875 2.766 0 2.692-.186 6.205-.186 6.205s0 .56-.052 1.066c-.053.506-.16 2.183-.16 2.183 0 .106.212.347.266.426 1.034 1.092 2.042 2.29 2.042 2.29-.557.48-2.705.48-2.705.48-1.432.292-2.493 0-2.493 0-1.009-.587-1.169-1.999-1.169-1.999s-.025.267-.025-.133c0-1.916.105-2.955.105-2.955.345-4.02-.105-8.2-.105-8.2l-.239-1.784c-.319-2.796-1.697-5.458-1.697-5.458-.293-.293-.478.08-.478.08-2.095 3.993-3.236 7.376-3.236 7.376-2.255 6.097-1.858 11.1-1.858 11.1.187.853.266 1.066.266 1.066-.822.213-2.944-.905-2.944-.985-2.122-1.411-1.14-6.443-1.14-6.443l.69-2.343L.354 41.39 1.92 30.687l2.387-.213-.53-10.224c.026-1.065.61-1.465.61-1.465-.159-6.896.53-7.348.53-7.348.663-1.252 1.937-1.891 1.937-1.891 1.406-.56 2.334-.905 2.334-.905" fill="#1A4D98" mask="url(#b)"/>
    </g>
  </g>
</svg>
