<svg xmlns="http://www.w3.org/2000/svg" width="54" height="62" viewBox="0 0 54 62">
  <g id="manager" transform="translate(-5 -1)">
    <circle id="Ellipse_61" data-name="Ellipse 61" cx="1" cy="1" r="1" transform="translate(37 22)" fill="#6262a0"/>
    <circle id="Ellipse_62" data-name="Ellipse 62" cx="1" cy="1" r="1" transform="translate(25 22)" fill="#6262a0"/>
    <path id="Path_1163" data-name="Path 1163" d="M36,32H34a2,2,0,0,1-4,0H28a4,4,0,0,0,8,0Z" fill="#6262a0"/>
    <path id="Path_1164" data-name="Path 1164" d="M23.064,11.584,21.44,10.416a13.037,13.037,0,0,0-1.261,2.167L22,13.417a11.052,11.052,0,0,1,1.068-1.833Z" fill="#6262a0"/>
    <path id="Path_1165" data-name="Path 1165" d="M32,7V5a12.986,12.986,0,0,0-8.6,3.25l1.323,1.5A10.992,10.992,0,0,1,32,7Z" fill="#6262a0"/>
    <path id="Path_1166" data-name="Path 1166" d="M49.123,47.289l-10.259-4.2A2.988,2.988,0,0,1,37,40.314V39.6A18.508,18.508,0,0,0,43.759,31H44a5.006,5.006,0,0,0,5-5V14.123a6.27,6.27,0,0,0-4.438-6L43.27,6.611A16.07,16.07,0,0,0,15,17.069V26a5.006,5.006,0,0,0,5,5h.241A18.513,18.513,0,0,0,27,39.6v.718a2.987,2.987,0,0,1-1.864,2.776l-10.259,4.2A15.839,15.839,0,0,0,5,62v1H59V62a15.837,15.837,0,0,0-9.877-14.711ZM38.555,45.126l-1.206,6.03-3.81-3.174,3.873-3.389a5.18,5.18,0,0,0,.694.35ZM32,49.3l1.032.86-.018,0L34.82,61H29.18l1.806-10.835-.018,0ZM44.414,28.958A18.573,18.573,0,0,0,45,24.351V23.184a2.984,2.984,0,0,1-.586,5.774ZM31.069,3A14.055,14.055,0,0,1,41.751,7.913l1.7,1.979.309.078A4.275,4.275,0,0,1,47,14.123v7.9a4.952,4.952,0,0,0-2-.924v-.836a5.024,5.024,0,0,0-2.427-4.287l-3.728-2.237-2.939,2.939L32,13.75l-3.906,2.93-2.939-2.939-3.728,2.237A5.023,5.023,0,0,0,19,20.265V21.1a4.965,4.965,0,0,0-2,.924V17.069A14.086,14.086,0,0,1,31.069,3ZM17,26a3,3,0,0,1,2-2.816v1.167a18.573,18.573,0,0,0,.586,4.607A3,3,0,0,1,17,26Zm4-1.649V20.265a3.013,3.013,0,0,1,1.457-2.572l2.389-1.433,3.061,3.061L32,16.25l4.094,3.07,3.061-3.061,2.389,1.433A3.016,3.016,0,0,1,43,20.265v4.086A16.526,16.526,0,0,1,32,39.942,16.525,16.525,0,0,1,21,24.351Zm10.684,17.6.316.1.316-.1A18.69,18.69,0,0,0,35.035,40.8a4.968,4.968,0,0,0,.9,2.428L32,46.671l-3.94-3.448a4.968,4.968,0,0,0,.9-2.428,18.6,18.6,0,0,0,2.72,1.154Zm-5.1,2.643,3.873,3.389-3.81,3.174-1.206-6.03.448-.183a4.911,4.911,0,0,0,.695-.35ZM15.634,49.139,23.56,45.9l1.789,8.947L28.635,52.1,27.153,61H17V55H15v6H7.035a13.842,13.842,0,0,1,8.6-11.861ZM49,61V55H47v6H36.847l-1.482-8.894,3.286,2.739L40.44,45.9l7.926,3.243A13.839,13.839,0,0,1,56.965,61H49Z" fill="#6262a0"/>
    <path id="Path_1167" data-name="Path 1167" d="M39,57h4v2H39Z" fill="#6262a0"/>
    <path id="Path_1168" data-name="Path 1168" d="M21,57h4v2H21Z" fill="#6262a0"/>
  </g>
</svg>
