<svg width="16" height="17" viewBox="0 0 16 17" fill="none" xmlns="http://www.w3.org/2000/svg">
<path d="M10.9009 16.3347H5.14124C4.74526 16.3347 4.42129 16.0107 4.42129 15.6148V12.015H0.821516C0.425542 12.015 0.101562 11.691 0.101562 11.295V5.5354C0.101562 5.13943 0.425542 4.81545 0.821516 4.81545H4.42129V1.21568C4.42129 0.819707 4.74526 0.495728 5.14124 0.495728H10.9009C11.2968 0.495728 11.6208 0.819707 11.6208 1.21568V4.81545H15.2206C15.6166 4.81545 15.9405 5.13943 15.9405 5.5354V11.295C15.9405 11.691 15.6166 12.015 15.2206 12.015H11.6208V15.6148C11.6208 16.0107 11.2968 16.3347 10.9009 16.3347ZM5.86119 14.8948H10.1809V11.295C10.1809 10.8991 10.5049 10.5751 10.9009 10.5751H14.5006V6.25536H10.9009C10.5049 6.25536 10.1809 5.93138 10.1809 5.5354V1.93563H5.86119V5.5354C5.86119 5.93138 5.53721 6.25536 5.14124 6.25536H1.54147V10.5751H5.14124C5.53721 10.5751 5.86119 10.8991 5.86119 11.295V14.8948Z" fill="#F45D48" fill-opacity="0.8"/>
</svg>
