<svg xmlns="http://www.w3.org/2000/svg" width="40.265" height="43.141" viewBox="0 0 40.265 43.141">
  <g id="onboard" transform="translate(-2 -0.001)">
    <path id="Path_210" data-name="Path 210" d="M41.546,2.876H36.513V.719A.718.718,0,0,0,35.794,0H30.761a.718.718,0,0,0-.719.719V2.876H14.223V.719A.718.718,0,0,0,13.5,0H8.471a.718.718,0,0,0-.719.719V2.876H2.719A.718.718,0,0,0,2,3.6V42.422a.718.718,0,0,0,.719.719H41.546a.718.718,0,0,0,.719-.719V3.6A.718.718,0,0,0,41.546,2.876ZM31.48,1.438h3.6V5.752h-3.6V1.438Zm-22.29,0h3.6V5.752H9.19V1.438ZM3.438,4.314H7.752V6.471a.718.718,0,0,0,.719.719H13.5a.718.718,0,0,0,.719-.719V4.314H30.042V6.471a.718.718,0,0,0,.719.719h5.033a.718.718,0,0,0,.719-.719V4.314h4.314v6.471H3.438Zm0,37.389V12.223H40.827V41.7Z" fill="#6262a0"/>
    <path id="Path_211" data-name="Path 211" d="M30.414,23H11V43.852H38.323V23H30.414ZM25.38,24.438h5.033v5.033H25.38Zm5.033,11.5H25.38V30.909h5.033Zm-11.5-5.033h5.033v5.033H18.909Zm0-6.471h5.033v5.033H18.909Zm-6.471,0h5.033v5.033H12.438Zm0,6.471h5.033v5.033H12.438Zm5.033,11.5H12.438V37.38h5.033Zm6.471,0H18.909V37.38h5.033Zm6.471,0H25.38V37.38h5.033Zm6.471,0H31.852V37.38h5.033Zm0-6.471H31.852V30.909h5.033Zm0-11.5v5.033H31.852V24.438Z" transform="translate(-2.529 -6.462)" fill="#6262a0"/>
  </g>
</svg>
