<svg xmlns="http://www.w3.org/2000/svg" width="170.051" height="170.051" viewBox="0 0 170.051 170.051">
  <g id="paper-plane" transform="translate(0 0)">
    <g id="Group_1712" data-name="Group 1712" transform="translate(17.935 0)">
      <g id="Group_1711" data-name="Group 1711">
        <path id="Path_1589" data-name="Path 1589" d="M204.44.436A3.321,3.321,0,0,0,201.1.462L140.239,36.453a3.321,3.321,0,0,0,3.381,5.718l43.669-25.823-81.341,84.4L65.492,88.369l52.8-31.22a3.321,3.321,0,0,0-3.381-5.718L55.63,86.484a3.322,3.322,0,0,0,.719,6.035L104.664,107.3l21.315,38.8a.789.789,0,0,0,.069.1,3.312,3.312,0,0,0,5.164.672l24.509-23.953,46.1,14.1a3.321,3.321,0,0,0,4.293-3.176V3.321A3.321,3.321,0,0,0,204.44.436ZM126.16,109.347a3.323,3.323,0,0,0-.591,1.891v20.317l-14.555-26.492,64.407-66.828Zm6.052,27.261v-20.88l16.271,4.978Zm67.261-7.249-65.263-19.966,65.263-94.213Z" transform="translate(-53.999 0)" fill="#6262a0"/>
      </g>
    </g>
    <g id="Group_1714" data-name="Group 1714" transform="translate(17.935 114.468)">
      <g id="Group_1713" data-name="Group 1713">
        <path id="Path_1590" data-name="Path 1590" d="M90.674,345.621a3.322,3.322,0,0,0-4.7,0L54.972,376.626a3.321,3.321,0,0,0,4.7,4.7l31.005-31.005A3.321,3.321,0,0,0,90.674,345.621Z" transform="translate(-53.999 -344.648)" fill="#6262a0"/>
      </g>
    </g>
    <g id="Group_1716" data-name="Group 1716" transform="translate(0 155.769)">
      <g id="Group_1715" data-name="Group 1715">
        <path id="Path_1591" data-name="Path 1591" d="M13.309,469.973a3.322,3.322,0,0,0-4.7,0L.973,477.612a3.321,3.321,0,1,0,4.7,4.7l7.639-7.639A3.322,3.322,0,0,0,13.309,469.973Z" transform="translate(0 -469.001)" fill="#6262a0"/>
      </g>
    </g>
    <g id="Group_1718" data-name="Group 1718" transform="translate(41.709 163.212)">
      <g id="Group_1717" data-name="Group 1717">
        <path id="Path_1592" data-name="Path 1592" d="M131.249,492.383a3.319,3.319,0,1,0,.973,2.348A3.345,3.345,0,0,0,131.249,492.383Z" transform="translate(-125.58 -491.41)" fill="#6262a0"/>
      </g>
    </g>
    <g id="Group_1720" data-name="Group 1720" transform="translate(49.997 138.5)">
      <g id="Group_1719" data-name="Group 1719">
        <path id="Path_1593" data-name="Path 1593" d="M172.626,417.979a3.321,3.321,0,0,0-4.7,0L151.507,434.4a3.321,3.321,0,1,0,4.7,4.7l16.423-16.422A3.321,3.321,0,0,0,172.626,417.979Z" transform="translate(-150.534 -417.006)" fill="#6262a0"/>
      </g>
    </g>
    <g id="Group_1722" data-name="Group 1722" transform="translate(106.632 137.24)">
      <g id="Group_1721" data-name="Group 1721">
        <path id="Path_1594" data-name="Path 1594" d="M343.19,414.183a3.322,3.322,0,0,0-4.7,0l-16.467,16.467a3.321,3.321,0,1,0,4.7,4.7l16.467-16.467A3.322,3.322,0,0,0,343.19,414.183Z" transform="translate(-321.053 -413.211)" fill="#6262a0"/>
      </g>
    </g>
    <g id="Group_1724" data-name="Group 1724" transform="translate(88.49 44.299)">
      <g id="Group_1723" data-name="Group 1723">
        <path id="Path_1595" data-name="Path 1595" d="M272.1,134.353a3.32,3.32,0,1,0,.973,2.351A3.346,3.346,0,0,0,272.1,134.353Z" transform="translate(-266.43 -133.38)" fill="#6262a0"/>
      </g>
    </g>
  </g>
</svg>
