<svg xmlns="http://www.w3.org/2000/svg" width="55.459" height="58.199" viewBox="0 0 55.459 58.199">
  <g id="payment-method" transform="translate(0 -0.023)">
    <g id="Group_1764" data-name="Group 1764" transform="translate(16.481 43.579)">
      <g id="Group_1763" data-name="Group 1763">
        <path id="Path_1649" data-name="Path 1649" d="M155.1,384.812a1.236,1.236,0,0,0-.068-.223,1.206,1.206,0,0,0-.109-.2,1.154,1.154,0,0,0-.328-.328,1.17,1.17,0,0,0-.205-.109,1.115,1.115,0,0,0-.222-.068,1.169,1.169,0,0,0-.463,0,1.15,1.15,0,0,0-.223.068,1.2,1.2,0,0,0-.2.109,1.152,1.152,0,0,0-.328.328,1.127,1.127,0,0,0-.109.2,1.15,1.15,0,0,0-.068.223,1.141,1.141,0,0,0,0,.463,1.115,1.115,0,0,0,.068.222,1.1,1.1,0,0,0,.109.205,1.154,1.154,0,0,0,.328.328,1.2,1.2,0,0,0,.2.109,1.15,1.15,0,0,0,.223.068,1.141,1.141,0,0,0,.463,0,1.115,1.115,0,0,0,.222-.068,1.176,1.176,0,0,0,.205-.109,1.155,1.155,0,0,0,.328-.328,1.173,1.173,0,0,0,.109-.205,1.2,1.2,0,0,0,.068-.222,1.141,1.141,0,0,0,0-.463Z" transform="translate(-152.75 -383.857)"/>
      </g>
    </g>
    <g id="Group_1766" data-name="Group 1766" transform="translate(0 34.229)">
      <g id="Group_1765" data-name="Group 1765">
        <path id="Path_1650" data-name="Path 1650" d="M49.318,320.023l-.013-.035c-.987-2.557-3.3-3.5-6.04-2.467L35.8,319.809a5.186,5.186,0,0,0-3.032-3.307l-.028-.011L24.525,313.4a8.233,8.233,0,0,0-6.832-3.482c-2.8,0-5.279,2.128-6.7,4.448H1.072A1.134,1.134,0,0,0,0,315.557v14.971a1.134,1.134,0,0,0,1.072,1.188H7.447a1.134,1.134,0,0,0,1.072-1.187V329.5h2.989a1.134,1.134,0,0,0,1.072-1.187v-.342a7.15,7.15,0,0,1,3.916,1.557,62.826,62.826,0,0,0,6.441,3.642l.047.022a8.817,8.817,0,0,0,3.449.72,7.845,7.845,0,0,0,3.552-.842l16.51-6.547c.029-.012.058-.025.087-.039A5.211,5.211,0,0,0,49.318,320.023ZM6.375,329.341H2.144v-12.6h4.23Zm4.062-2.213H8.519V316.745h1.917Zm35.291-2.82-16.5,6.544-.048.021-.043.021a6.33,6.33,0,0,1-5.339.1,60.138,60.138,0,0,1-6.225-3.522,9.058,9.058,0,0,0-4.988-1.879V316.03c1.016-1.845,2.987-3.733,5.112-3.733a6.067,6.067,0,0,1,5.249,2.731,1.1,1.1,0,0,0,.569.5l8.521,3.2a2.7,2.7,0,0,1,1.75,3.144,2.273,2.273,0,0,1-.992,1.388,1.9,1.9,0,0,1-1.574.209L21.608,320.1a1.055,1.055,0,0,0-1.346.773,1.217,1.217,0,0,0,.7,1.491l9.622,3.377.031.01a3.841,3.841,0,0,0,3.218-.414,4.606,4.606,0,0,0,2.011-2.813q.037-.144.066-.289l8.05-2.47c1.163-.44,2.689-.6,3.368,1.135A2.831,2.831,0,0,1,45.727,324.309Z" transform="translate(0 -309.922)"/>
      </g>
    </g>
    <g id="Group_1768" data-name="Group 1768" transform="translate(36.603 14.035)">
      <g id="Group_1767" data-name="Group 1767">
        <path id="Path_1651" data-name="Path 1651" d="M341.6,124.453a1.156,1.156,0,0,0-.069-.223,1.126,1.126,0,0,0-.109-.2,1.155,1.155,0,0,0-.328-.328,1.209,1.209,0,0,0-.2-.109,1.183,1.183,0,0,0-.686-.068,1.116,1.116,0,0,0-.222.068,1.172,1.172,0,0,0-.205.109,1.153,1.153,0,0,0-.328.328,1.2,1.2,0,0,0-.109.2,1.152,1.152,0,0,0-.068.223,1.141,1.141,0,0,0,0,.463,1.117,1.117,0,0,0,.068.222,1.171,1.171,0,0,0,.109.205,1.152,1.152,0,0,0,.328.328,1.171,1.171,0,0,0,.205.109,1.2,1.2,0,0,0,.222.068,1.169,1.169,0,0,0,.232.024,1.191,1.191,0,0,0,.233-.024,1.256,1.256,0,0,0,.222-.068,1.208,1.208,0,0,0,.2-.109,1.155,1.155,0,0,0,.328-.328,1.1,1.1,0,0,0,.109-.205,1.12,1.12,0,0,0,.069-.222,1.2,1.2,0,0,0,0-.463Z" transform="translate(-339.25 -123.498)"/>
      </g>
    </g>
    <g id="Group_1770" data-name="Group 1770" transform="translate(3.526 0.023)">
      <g id="Group_1769" data-name="Group 1769">
        <path id="Path_1652" data-name="Path 1652" d="M80.547,4.045h-6.4a1.136,1.136,0,0,0-1.077,1.187V6.258h-3a1.136,1.136,0,0,0-1.077,1.187v.342A7.2,7.2,0,0,1,65.056,6.23a63.161,63.161,0,0,0-6.469-3.642l-.047-.022a8.377,8.377,0,0,0-7.031.122L47.176,4.4,43.524.371A1.007,1.007,0,0,0,42,.371L30.01,13.594a1.264,1.264,0,0,0,0,1.679L50.5,37.87a1.083,1.083,0,0,0,1.523,0L62.969,25.8c.285.027.58.042.886.042,2.813,0,5.3-2.128,6.725-4.448h9.967A1.136,1.136,0,0,0,81.624,20.2V5.232A1.136,1.136,0,0,0,80.547,4.045ZM42.762,2.89,45.216,5.6a4.325,4.325,0,0,1-4.908,0ZM34.749,17.141l-2.454-2.707,2.454-2.707a5.635,5.635,0,0,1,0,5.413Zm16.512,18.21-2.454-2.706a4.319,4.319,0,0,1,4.907,0Zm4.005-4.417a6.332,6.332,0,0,0-8.01,0L36.3,18.851a8.182,8.182,0,0,0,0-8.835l2.457-2.709a6.332,6.332,0,0,0,8.011,0L49.1,9.876a3.989,3.989,0,0,0-1.45.545,4.5,4.5,0,0,0-1.754,2.044,5.973,5.973,0,0,0-3.221,1.869,7.279,7.279,0,0,0,0,9.573,5.748,5.748,0,0,0,8.68,0,6.936,6.936,0,0,0,1.6-3.064L56.584,22.2a8.209,8.209,0,0,0,1.141,6.018ZM48.72,19.26l.029.011,2.153.806a4.52,4.52,0,0,1-1.072,2.151,3.731,3.731,0,0,1-5.635,0,4.725,4.725,0,0,1,0-6.214,3.979,3.979,0,0,1,1.3-.956A5.156,5.156,0,0,0,48.72,19.26Zm10.557,7.251a5.583,5.583,0,0,1-.688-2.469,8.165,8.165,0,0,0,1.9,1.134Zm9.713-6.781c-1.021,1.845-3,3.734-5.134,3.734a7.12,7.12,0,0,1-1.123-.087h0a6.084,6.084,0,0,1-3.989-2.407c-.022-.036-.116-.171-.129-.193a1.106,1.106,0,0,0-.593-.544l-8.561-3.2A2.7,2.7,0,0,1,47.7,13.885V13.88a2.273,2.273,0,0,1,1-1.384,1.913,1.913,0,0,1,1.581-.209l9.647,3.371a1.06,1.06,0,0,0,1.352-.773,1.215,1.215,0,0,0-.7-1.491L52.9,10.713l-.067-.074,0,0L48.86,6.256l3.414-1.348.037-.016.011,0,.043-.021a6.381,6.381,0,0,1,5.362-.1A60.466,60.466,0,0,1,63.98,8.287a9.119,9.119,0,0,0,5.009,1.879Zm4.079-.714H71.143V8.633h1.926Zm6.4,0H75.222V6.42H79.47Z" transform="translate(-29.691 -0.023)"/>
      </g>
    </g>
  </g>
</svg>
