<svg xmlns="http://www.w3.org/2000/svg" width="40.164" height="40.16" viewBox="0 0 40.164 40.16">
  <g id="payroll" transform="translate(0 -0.023)">
    <g id="Group_838" data-name="Group 838" transform="translate(11.982 30.133)">
      <g id="Group_837" data-name="Group 837">
        <path id="Path_204" data-name="Path 204" d="M154.3,384.488a.819.819,0,0,0-.045-.147.8.8,0,0,0-.072-.135.762.762,0,0,0-.217-.216.777.777,0,0,0-.136-.072.739.739,0,0,0-.147-.045.773.773,0,0,0-.306,0,.762.762,0,0,0-.147.045.8.8,0,0,0-.135.072.762.762,0,0,0-.217.216.745.745,0,0,0-.072.135.761.761,0,0,0-.045.147.754.754,0,0,0,0,.306.737.737,0,0,0,.045.147.727.727,0,0,0,.072.136.764.764,0,0,0,.217.217.789.789,0,0,0,.135.072.758.758,0,0,0,.147.045.754.754,0,0,0,.306,0,.735.735,0,0,0,.147-.045.773.773,0,0,0,.136-.072.763.763,0,0,0,.217-.217.776.776,0,0,0,.072-.136.791.791,0,0,0,.045-.147.754.754,0,0,0,0-.306Z" transform="translate(-152.75 -383.857)" fill="#6262a0"/>
      </g>
    </g>
    <g id="Group_840" data-name="Group 840" transform="translate(0 24.333)">
      <g id="Group_839" data-name="Group 839">
        <path id="Path_205" data-name="Path 205" d="M36.084,316.595l-.009-.023c-.722-1.689-2.415-2.314-4.419-1.629l-5.465,1.511a3.583,3.583,0,0,0-2.218-2.185l-.021-.007-6.007-2.039a6.2,6.2,0,0,0-5-2.3,6.273,6.273,0,0,0-4.9,2.938H.784a.784.784,0,0,0-.784.784v9.89a.784.784,0,0,0,.784.784H5.449a.784.784,0,0,0,.784-.784v-.677H8.42a.784.784,0,0,0,.784-.784v-.226a5.562,5.562,0,0,1,2.865,1.028,47.473,47.473,0,0,0,4.713,2.406l.034.015a7.042,7.042,0,0,0,2.524.476,6.253,6.253,0,0,0,2.6-.556l12.08-4.325c.021-.008.043-.016.063-.026A3.348,3.348,0,0,0,36.084,316.595ZM4.664,322.75h-3.1v-8.321h3.1Zm2.972-1.462h-1.4v-6.859h1.4Zm25.821-1.863-12.074,4.323-.035.014-.032.014a5.085,5.085,0,0,1-3.907.067,45.436,45.436,0,0,1-4.555-2.326A7.06,7.06,0,0,0,9.2,320.275v-6.318a4.845,4.845,0,0,1,3.74-2.466,4.527,4.527,0,0,1,3.84,1.8.785.785,0,0,0,.416.332l6.234,2.116a1.76,1.76,0,0,1,1.28,2.077,1.529,1.529,0,0,1-1.878,1.055l-7.028-2.227a.784.784,0,0,0-.474,1.5l7.04,2.231.022.007a3.079,3.079,0,0,0,2.355-.274,3.076,3.076,0,0,0,1.472-1.858q.027-.1.048-.191l5.89-1.632c.851-.291,1.967-.4,2.464.75C35.142,318.52,33.8,319.26,33.456,319.426Z" transform="translate(0 -309.922)" fill="#6262a0"/>
      </g>
    </g>
    <g id="Group_842" data-name="Group 842" transform="translate(26.612 9.709)">
      <g id="Group_841" data-name="Group 841">
        <path id="Path_206" data-name="Path 206" d="M340.8,124.129a.76.76,0,0,0-.046-.147.773.773,0,0,0-.289-.351.794.794,0,0,0-.135-.072.781.781,0,0,0-.453-.045.739.739,0,0,0-.147.045.773.773,0,0,0-.136.072.763.763,0,0,0-.217.216.8.8,0,0,0-.072.135.762.762,0,0,0-.045.147.752.752,0,0,0,0,.306.74.74,0,0,0,.045.147.774.774,0,0,0,.072.136.763.763,0,0,0,.217.216.777.777,0,0,0,.136.072.794.794,0,0,0,.147.045.772.772,0,0,0,.153.016.785.785,0,0,0,.154-.016.83.83,0,0,0,.147-.045.8.8,0,0,0,.135-.072.762.762,0,0,0,.217-.216.728.728,0,0,0,.072-.136.738.738,0,0,0,.046-.147.793.793,0,0,0,0-.306Z" transform="translate(-339.25 -123.498)" fill="#6262a0"/>
      </g>
    </g>
    <g id="Group_844" data-name="Group 844" transform="translate(2.329 0.023)">
      <g id="Group_843" data-name="Group 843">
        <path id="Path_207" data-name="Path 207" d="M66.741,2.68H62.077a.784.784,0,0,0-.784.784v.677H59.105a.784.784,0,0,0-.784.784v.226a5.562,5.562,0,0,1-2.865-1.028,47.468,47.468,0,0,0-4.713-2.406L50.708,1.7a6.674,6.674,0,0,0-5.122.081l-3.157,1.13L39.768.253a.784.784,0,0,0-1.109,0L29.923,8.988a.778.778,0,0,0,0,1.109L44.85,25.025a.848.848,0,0,0,1.109,0l7.975-7.975c.207.018.423.028.646.028a6.273,6.273,0,0,0,4.9-2.938h7.261a.784.784,0,0,0,.784-.784V3.464A.784.784,0,0,0,66.741,2.68ZM39.213,1.917,41,3.7a3.42,3.42,0,0,1-3.576,0Zm-5.838,9.414L31.588,9.543l1.788-1.788a3.42,3.42,0,0,1,0,3.576Zm12.03,12.03-1.788-1.788a3.415,3.415,0,0,1,3.575,0Zm2.918-2.918a4.985,4.985,0,0,0-5.836,0l-7.982-7.982a4.985,4.985,0,0,0,0-5.836l1.79-1.79a4.985,4.985,0,0,0,5.836,0l1.7,1.7a3.109,3.109,0,0,0-2.334,1.71,4.471,4.471,0,1,0,5.141,5.535l2.649.9a5.008,5.008,0,0,0,.831,3.976Zm-4.769-7.712.021.007,1.569.532A2.9,2.9,0,1,1,41.2,9.955,3.473,3.473,0,0,0,43.554,12.731Zm7.691,4.79a3.431,3.431,0,0,1-.5-1.631,6.1,6.1,0,0,0,1.383.749Zm7.076-4.479a4.844,4.844,0,0,1-3.74,2.466,5.71,5.71,0,0,1-.818-.058h0a4.493,4.493,0,0,1-2.906-1.59c-.016-.024-.084-.113-.094-.128a.782.782,0,0,0-.432-.36L44.09,11.256a1.76,1.76,0,0,1-1.28-2.076v0a1.528,1.528,0,0,1,1.877-1.052l7.028,2.227a.784.784,0,0,0,.474-1.5L46.6,7.085l-.049-.049h0L43.656,4.141l2.487-.891.027-.01.008,0,.032-.014a5.084,5.084,0,0,1,3.906-.067,45.441,45.441,0,0,1,4.555,2.326,7.06,7.06,0,0,0,3.649,1.241Zm2.972-.472h-1.4V5.711h1.4Zm4.664,0h-3.1V4.249h3.1Z" transform="translate(-29.691 -0.023)" fill="#6262a0"/>
      </g>
    </g>
  </g>
</svg>
