<svg width="77" height="77" viewBox="0 0 77 77" fill="none" xmlns="http://www.w3.org/2000/svg">
<ellipse cx="38.453" cy="38.3855" rx="38.453" ry="38.3855" fill="url(#paint0_linear)"/>
<path d="M49.5029 39.0253C49.8224 39.2202 49.8224 39.6841 49.5029 39.879L31.7365 50.7172C31.4033 50.9205 30.9761 50.6807 30.9761 50.2904L30.9761 28.614C30.9761 28.2237 31.4033 27.9839 31.7365 28.1871L49.5029 39.0253Z" fill="#617080"/>
<path d="M49.5029 37.9589C49.8224 38.1538 49.8224 38.6177 49.5029 38.8126L31.7365 49.6508C31.4033 49.8541 30.9761 49.6143 30.9761 49.224L30.9761 27.5476C30.9761 27.1573 31.4033 26.9175 31.7365 27.1207L49.5029 37.9589Z" fill="white"/>
<defs>
<linearGradient id="paint0_linear" x1="38.453" y1="0" x2="38.453" y2="76.7711" gradientUnits="userSpaceOnUse">
<stop stop-color="#778695"/>
<stop offset="1" stop-color="#617080"/>
</linearGradient>
</defs>
</svg>
