<svg xmlns="http://www.w3.org/2000/svg" width="93" height="93" viewBox="0 0 93 93">
  <path id="quote-bullet" d="M3,1.5A1.5,1.5,0,1,1,1.5,0,1.5,1.5,0,0,1,3,1.5Zm10,0A1.5,1.5,0,1,1,11.5,0,1.5,1.5,0,0,1,13,1.5ZM21.5,3A1.5,1.5,0,1,0,20,1.5,1.5,1.5,0,0,0,21.5,3ZM33,1.5A1.5,1.5,0,1,1,31.5,0,1.5,1.5,0,0,1,33,1.5ZM41.5,3A1.5,1.5,0,1,0,40,1.5,1.5,1.5,0,0,0,41.5,3ZM53,1.5A1.5,1.5,0,1,1,51.5,0,1.5,1.5,0,0,1,53,1.5ZM61.5,3A1.5,1.5,0,1,0,60,1.5,1.5,1.5,0,0,0,61.5,3ZM73,1.5A1.5,1.5,0,1,1,71.5,0,1.5,1.5,0,0,1,73,1.5ZM81.5,3A1.5,1.5,0,1,0,80,1.5,1.5,1.5,0,0,0,81.5,3ZM93,1.5A1.5,1.5,0,1,1,91.5,0,1.5,1.5,0,0,1,93,1.5ZM1.5,13A1.5,1.5,0,1,0,0,11.5,1.5,1.5,0,0,0,1.5,13Zm10,0A1.5,1.5,0,1,0,10,11.5,1.5,1.5,0,0,0,11.5,13ZM23,11.5A1.5,1.5,0,1,1,21.5,10,1.5,1.5,0,0,1,23,11.5ZM31.5,13A1.5,1.5,0,1,0,30,11.5,1.5,1.5,0,0,0,31.5,13ZM43,11.5A1.5,1.5,0,1,1,41.5,10,1.5,1.5,0,0,1,43,11.5ZM51.5,13A1.5,1.5,0,1,0,50,11.5,1.5,1.5,0,0,0,51.5,13ZM63,11.5A1.5,1.5,0,1,1,61.5,10,1.5,1.5,0,0,1,63,11.5ZM71.5,13A1.5,1.5,0,1,0,70,11.5,1.5,1.5,0,0,0,71.5,13ZM83,11.5A1.5,1.5,0,1,1,81.5,10,1.5,1.5,0,0,1,83,11.5ZM91.5,13A1.5,1.5,0,1,0,90,11.5,1.5,1.5,0,0,0,91.5,13ZM3,21.5A1.5,1.5,0,1,1,1.5,20,1.5,1.5,0,0,1,3,21.5Zm10,0A1.5,1.5,0,1,1,11.5,20,1.5,1.5,0,0,1,13,21.5ZM21.5,23A1.5,1.5,0,1,0,20,21.5,1.5,1.5,0,0,0,21.5,23ZM33,21.5A1.5,1.5,0,1,1,31.5,20,1.5,1.5,0,0,1,33,21.5ZM41.5,23A1.5,1.5,0,1,0,40,21.5,1.5,1.5,0,0,0,41.5,23ZM53,21.5A1.5,1.5,0,1,1,51.5,20,1.5,1.5,0,0,1,53,21.5ZM61.5,23A1.5,1.5,0,1,0,60,21.5,1.5,1.5,0,0,0,61.5,23ZM73,21.5A1.5,1.5,0,1,1,71.5,20,1.5,1.5,0,0,1,73,21.5ZM81.5,23A1.5,1.5,0,1,0,80,21.5,1.5,1.5,0,0,0,81.5,23ZM93,21.5A1.5,1.5,0,1,1,91.5,20,1.5,1.5,0,0,1,93,21.5ZM1.5,33A1.5,1.5,0,1,0,0,31.5,1.5,1.5,0,0,0,1.5,33Zm10,0A1.5,1.5,0,1,0,10,31.5,1.5,1.5,0,0,0,11.5,33ZM23,31.5A1.5,1.5,0,1,1,21.5,30,1.5,1.5,0,0,1,23,31.5ZM31.5,33A1.5,1.5,0,1,0,30,31.5,1.5,1.5,0,0,0,31.5,33ZM43,31.5A1.5,1.5,0,1,1,41.5,30,1.5,1.5,0,0,1,43,31.5ZM51.5,33A1.5,1.5,0,1,0,50,31.5,1.5,1.5,0,0,0,51.5,33ZM63,31.5A1.5,1.5,0,1,1,61.5,30,1.5,1.5,0,0,1,63,31.5ZM71.5,33A1.5,1.5,0,1,0,70,31.5,1.5,1.5,0,0,0,71.5,33ZM83,31.5A1.5,1.5,0,1,1,81.5,30,1.5,1.5,0,0,1,83,31.5ZM91.5,33A1.5,1.5,0,1,0,90,31.5,1.5,1.5,0,0,0,91.5,33ZM3,41.5A1.5,1.5,0,1,1,1.5,40,1.5,1.5,0,0,1,3,41.5Zm10,0A1.5,1.5,0,1,1,11.5,40,1.5,1.5,0,0,1,13,41.5ZM21.5,43A1.5,1.5,0,1,0,20,41.5,1.5,1.5,0,0,0,21.5,43ZM33,41.5A1.5,1.5,0,1,1,31.5,40,1.5,1.5,0,0,1,33,41.5ZM41.5,43A1.5,1.5,0,1,0,40,41.5,1.5,1.5,0,0,0,41.5,43ZM53,41.5A1.5,1.5,0,1,1,51.5,40,1.5,1.5,0,0,1,53,41.5ZM61.5,43A1.5,1.5,0,1,0,60,41.5,1.5,1.5,0,0,0,61.5,43ZM73,41.5A1.5,1.5,0,1,1,71.5,40,1.5,1.5,0,0,1,73,41.5ZM81.5,43A1.5,1.5,0,1,0,80,41.5,1.5,1.5,0,0,0,81.5,43ZM93,41.5A1.5,1.5,0,1,1,91.5,40,1.5,1.5,0,0,1,93,41.5ZM1.5,53A1.5,1.5,0,1,0,0,51.5,1.5,1.5,0,0,0,1.5,53Zm10,0A1.5,1.5,0,1,0,10,51.5,1.5,1.5,0,0,0,11.5,53ZM23,51.5A1.5,1.5,0,1,1,21.5,50,1.5,1.5,0,0,1,23,51.5ZM31.5,53A1.5,1.5,0,1,0,30,51.5,1.5,1.5,0,0,0,31.5,53ZM43,51.5A1.5,1.5,0,1,1,41.5,50,1.5,1.5,0,0,1,43,51.5ZM51.5,53A1.5,1.5,0,1,0,50,51.5,1.5,1.5,0,0,0,51.5,53ZM63,51.5A1.5,1.5,0,1,1,61.5,50,1.5,1.5,0,0,1,63,51.5ZM71.5,53A1.5,1.5,0,1,0,70,51.5,1.5,1.5,0,0,0,71.5,53ZM83,51.5A1.5,1.5,0,1,1,81.5,50,1.5,1.5,0,0,1,83,51.5ZM91.5,53A1.5,1.5,0,1,0,90,51.5,1.5,1.5,0,0,0,91.5,53ZM3,61.5A1.5,1.5,0,1,1,1.5,60,1.5,1.5,0,0,1,3,61.5Zm10,0A1.5,1.5,0,1,1,11.5,60,1.5,1.5,0,0,1,13,61.5ZM21.5,63A1.5,1.5,0,1,0,20,61.5,1.5,1.5,0,0,0,21.5,63ZM33,61.5A1.5,1.5,0,1,1,31.5,60,1.5,1.5,0,0,1,33,61.5ZM41.5,63A1.5,1.5,0,1,0,40,61.5,1.5,1.5,0,0,0,41.5,63ZM53,61.5A1.5,1.5,0,1,1,51.5,60,1.5,1.5,0,0,1,53,61.5ZM61.5,63A1.5,1.5,0,1,0,60,61.5,1.5,1.5,0,0,0,61.5,63ZM73,61.5A1.5,1.5,0,1,1,71.5,60,1.5,1.5,0,0,1,73,61.5ZM81.5,63A1.5,1.5,0,1,0,80,61.5,1.5,1.5,0,0,0,81.5,63ZM93,61.5A1.5,1.5,0,1,1,91.5,60,1.5,1.5,0,0,1,93,61.5ZM1.5,73A1.5,1.5,0,1,0,0,71.5,1.5,1.5,0,0,0,1.5,73Zm10,0A1.5,1.5,0,1,0,10,71.5,1.5,1.5,0,0,0,11.5,73ZM23,71.5A1.5,1.5,0,1,1,21.5,70,1.5,1.5,0,0,1,23,71.5ZM31.5,73A1.5,1.5,0,1,0,30,71.5,1.5,1.5,0,0,0,31.5,73ZM43,71.5A1.5,1.5,0,1,1,41.5,70,1.5,1.5,0,0,1,43,71.5ZM51.5,73A1.5,1.5,0,1,0,50,71.5,1.5,1.5,0,0,0,51.5,73ZM63,71.5A1.5,1.5,0,1,1,61.5,70,1.5,1.5,0,0,1,63,71.5ZM71.5,73A1.5,1.5,0,1,0,70,71.5,1.5,1.5,0,0,0,71.5,73ZM83,71.5A1.5,1.5,0,1,1,81.5,70,1.5,1.5,0,0,1,83,71.5ZM91.5,73A1.5,1.5,0,1,0,90,71.5,1.5,1.5,0,0,0,91.5,73ZM3,81.5A1.5,1.5,0,1,1,1.5,80,1.5,1.5,0,0,1,3,81.5Zm10,0A1.5,1.5,0,1,1,11.5,80,1.5,1.5,0,0,1,13,81.5ZM21.5,83A1.5,1.5,0,1,0,20,81.5,1.5,1.5,0,0,0,21.5,83ZM33,81.5A1.5,1.5,0,1,1,31.5,80,1.5,1.5,0,0,1,33,81.5ZM41.5,83A1.5,1.5,0,1,0,40,81.5,1.5,1.5,0,0,0,41.5,83ZM53,81.5A1.5,1.5,0,1,1,51.5,80,1.5,1.5,0,0,1,53,81.5ZM61.5,83A1.5,1.5,0,1,0,60,81.5,1.5,1.5,0,0,0,61.5,83ZM73,81.5A1.5,1.5,0,1,1,71.5,80,1.5,1.5,0,0,1,73,81.5ZM81.5,83A1.5,1.5,0,1,0,80,81.5,1.5,1.5,0,0,0,81.5,83ZM93,81.5A1.5,1.5,0,1,1,91.5,80,1.5,1.5,0,0,1,93,81.5ZM3,91.5A1.5,1.5,0,1,1,1.5,90,1.5,1.5,0,0,1,3,91.5Zm10,0A1.5,1.5,0,1,1,11.5,90,1.5,1.5,0,0,1,13,91.5ZM21.5,93A1.5,1.5,0,1,0,20,91.5,1.5,1.5,0,0,0,21.5,93ZM33,91.5A1.5,1.5,0,1,1,31.5,90,1.5,1.5,0,0,1,33,91.5ZM41.5,93A1.5,1.5,0,1,0,40,91.5,1.5,1.5,0,0,0,41.5,93ZM53,91.5A1.5,1.5,0,1,1,51.5,90,1.5,1.5,0,0,1,53,91.5ZM61.5,93A1.5,1.5,0,1,0,60,91.5,1.5,1.5,0,0,0,61.5,93ZM73,91.5A1.5,1.5,0,1,1,71.5,90,1.5,1.5,0,0,1,73,91.5ZM81.5,93A1.5,1.5,0,1,0,80,91.5,1.5,1.5,0,0,0,81.5,93ZM93,91.5A1.5,1.5,0,1,1,91.5,90,1.5,1.5,0,0,1,93,91.5Z" fill="#e57414" fill-rule="evenodd"/>
</svg>
