<svg xmlns="http://www.w3.org/2000/svg" width="62.374" height="62" viewBox="0 0 62.374 62">
  <g id="recruitment" transform="translate(-0.813 -1)">
    <path id="Path_245" data-name="Path 245" d="M41,35A12,12,0,1,0,53,47,12.013,12.013,0,0,0,41,35Zm0,22A10,10,0,1,1,51,47,10.011,10.011,0,0,1,41,57Z" fill="#c7c7c7"/>
    <path id="Path_246" data-name="Path 246" d="M41,53v2a8.034,8.034,0,0,0,2.309-.338l-.576-1.915A6.026,6.026,0,0,1,41,53Z" fill="#c7c7c7"/>
    <path id="Path_247" data-name="Path 247" d="M41,39v2a6,6,0,0,1,3.309,11.007l1.1,1.667A8,8,0,0,0,41,39Z" fill="#c7c7c7"/>
    <path id="Path_248" data-name="Path 248" d="M36,21a8.005,8.005,0,0,0-4.695-7.277,5,5,0,1,0-6.61,0A8.005,8.005,0,0,0,20,21v2H36ZM25,10a3,3,0,1,1,3,3A3,3,0,0,1,25,10ZM22,21a6,6,0,0,1,12,0Z" fill="#c7c7c7"/>
    <path id="Path_249" data-name="Path 249" d="M38,5h6V7H38Z" fill="#c7c7c7"/>
    <path id="Path_250" data-name="Path 250" d="M38,9h6v2H38Z" fill="#c7c7c7"/>
    <path id="Path_251" data-name="Path 251" d="M38,13h6v2H38Z" fill="#c7c7c7"/>
    <path id="Path_252" data-name="Path 252" d="M38,17h6v2H38Z" fill="#c7c7c7"/>
    <path id="Path_253" data-name="Path 253" d="M38,21h6v2H38Z" fill="#c7c7c7"/>
    <path id="Path_254" data-name="Path 254" d="M54.3,10.9h2v6h-2Z" transform="translate(30.203 65.103) rotate(-77.993)" fill="#c7c7c7"/>
    <path id="Path_255" data-name="Path 255" d="M53.468,14.815h2v6h-2Z" transform="translate(25.717 67.389) rotate(-77.993)" fill="#c7c7c7"/>
    <path id="Path_256" data-name="Path 256" d="M52.636,18.728h2v6h-2Z" transform="translate(21.23 69.673) rotate(-77.993)" fill="#c7c7c7"/>
    <path id="Path_257" data-name="Path 257" d="M51.805,22.64h2v6h-2Z" transform="translate(16.746 71.96) rotate(-77.993)" fill="#c7c7c7"/>
    <path id="Path_258" data-name="Path 258" d="M50.973,26.553h2v6h-2Z" transform="translate(12.254 74.241) rotate(-77.993)" fill="#c7c7c7"/>
    <path id="Path_259" data-name="Path 259" d="M63.187,10.467,48,7.239V1H16V7.239L.813,10.467,7.516,42H6A5,5,0,0,0,6,52H21V50h4.292a15.993,15.993,0,1,0,31.065-7.454Zm-2.374,1.54-5.8,27.287A16.089,16.089,0,0,0,48,32.635V9.284ZM46,3V31.811a15.731,15.731,0,0,0-2-.519V25H20V40h6.635a15.863,15.863,0,0,0-1.343,4H21V42H18V3ZM27.782,38H22V27H42v4.051c-.332-.021-.662-.051-1-.051A15.99,15.99,0,0,0,27.782,38ZM13.651,42l-1.562-7.349L16,33.82V42ZM11.678,24.267a5.961,5.961,0,0,1,3.785-2.6c.174-.037.356-.057.537-.077v6.1l-5.158,1.1a5.962,5.962,0,0,1,.836-4.516Zm1.111-4.975A2.983,2.983,0,1,1,16,14.263v5.023a2.847,2.847,0,0,1-.953.424A2.985,2.985,0,0,1,12.789,19.292Zm-9.6-7.285L16,9.284v2.761a4.912,4.912,0,0,0-2.617-.16A5,5,0,0,0,11.7,20.968c.082.053.169.092.253.14A7.978,7.978,0,0,0,8.886,29.2L9.3,31.155,16,29.73v2.045L9.716,33.111,11.6,42H9.561ZM19,50H6a3,3,0,0,1,0-6H19Zm2-2V46h4.051c-.021.332-.051.662-.051,1s.03.668.051,1ZM41,61A14,14,0,1,1,55,47,14.015,14.015,0,0,1,41,61Z" fill="#c7c7c7"/>
  </g>
</svg>
