<svg id="human-resources" xmlns="http://www.w3.org/2000/svg" width="54.713" height="54.713" viewBox="0 0 54.713 54.713">
  <g id="Group_1784" data-name="Group 1784" transform="translate(0 24.621)">
    <g id="Group_1783" data-name="Group 1783">
      <path id="Path_1665" data-name="Path 1665" d="M12.766,225.119h-.936a4.512,4.512,0,0,0,.936-2.736v-1.824a4.559,4.559,0,1,0-9.119,0v1.824a4.512,4.512,0,0,0,.936,2.736H3.648A3.648,3.648,0,0,0,0,228.766v8.207a.912.912,0,0,0,.912.912H3.648v5.256l-.816,1.631a.912.912,0,0,0,.816,1.32h9.119a.912.912,0,0,0,.816-1.32l-.816-1.631v-5.256H15.5a.912.912,0,0,0,.912-.912v-8.207A3.648,3.648,0,0,0,12.766,225.119Zm-7.3-4.559a2.736,2.736,0,1,1,5.471,0v1.824a2.736,2.736,0,0,1-5.471,0Zm-1.824,15.5H1.824v-1.824H3.648Zm10.943,0H12.766v-1.824H14.59Zm0-3.648H12.766v-3.648H10.943v14.59a.912.912,0,0,0,.1.408l.253.5H9.119v-8.207H7.3v8.207H5.123l.253-.5a.912.912,0,0,0,.1-.408v-14.59H3.648v3.648H1.824v-3.648a1.824,1.824,0,0,1,1.824-1.824h9.119a1.824,1.824,0,0,1,1.824,1.824Z" transform="translate(0 -216)"/>
    </g>
  </g>
  <g id="Group_1786" data-name="Group 1786" transform="translate(38.299 24.621)">
    <g id="Group_1785" data-name="Group 1785">
      <path id="Path_1666" data-name="Path 1666" d="M348.766,225.119h-.936a4.512,4.512,0,0,0,.936-2.736v-1.824a4.559,4.559,0,1,0-9.119,0v1.824a4.512,4.512,0,0,0,.936,2.736h-.936A3.648,3.648,0,0,0,336,228.766v8.207a.912.912,0,0,0,.912.912h2.736v5.256l-.821,1.631a.912.912,0,0,0,.821,1.32h9.119a.912.912,0,0,0,.821-1.32l-.821-1.631v-5.256H351.5a.912.912,0,0,0,.912-.912v-8.207A3.648,3.648,0,0,0,348.766,225.119Zm-7.3-4.559a2.736,2.736,0,1,1,5.471,0v1.824a2.736,2.736,0,0,1-5.471,0Zm-1.824,15.5h-1.824v-1.824h1.824Zm10.943,0h-1.824v-1.824h1.824Zm0-3.648h-1.824v-3.648h-1.824v14.59a.91.91,0,0,0,.091.408l.253.5h-2.168v-8.207H343.3v8.207h-2.172l.253-.5a.912.912,0,0,0,.1-.408v-14.59h-1.824v3.648h-1.824v-3.648a1.824,1.824,0,0,1,1.824-1.824h9.119a1.824,1.824,0,0,1,1.824,1.824Z" transform="translate(-336 -216)"/>
    </g>
  </g>
  <g id="Group_1788" data-name="Group 1788" transform="translate(4.561)">
    <g id="Group_1787" data-name="Group 1787">
      <path id="Path_1667" data-name="Path 1667" d="M71.015,0V21.885a1.809,1.809,0,0,1-.569,1.323,1.849,1.849,0,0,1-1.353.5,1.932,1.932,0,0,1-1.725-1.979V15.5a4.559,4.559,0,1,0-9.119,0v6.383a1.809,1.809,0,0,1-.569,1.323,1.846,1.846,0,0,1-1.353.5A1.932,1.932,0,0,1,54.6,21.73V5.849L60.45,0H57.871L53.044,4.827,47.577,10.3,41.13,16.681a3.813,3.813,0,0,0,2.485,6.5c.07,0,.14.006.212.006a3.81,3.81,0,0,0,2.687-1.108l.792-.773v.575a3.632,3.632,0,0,0,6.4,2.371,3.556,3.556,0,0,0,4.728.667,4.523,4.523,0,0,0,.751,1.521h-.936A3.648,3.648,0,0,0,54.6,30.092V38.3a.912.912,0,0,0,.912.912h2.736v5.256L57.432,46.1a.912.912,0,0,0,.816,1.319h9.119a.912.912,0,0,0,.821-1.319l-.821-1.631V39.211H70.1a.912.912,0,0,0,.912-.912V30.092a3.648,3.648,0,0,0-3.648-3.648h-.936a4.516,4.516,0,0,0,.758-1.545A3.5,3.5,0,0,0,69,25.527c.067,0,.133.005.2.005a3.615,3.615,0,0,0,2.507-1,3.662,3.662,0,0,0,1.137-2.644V0ZM47.306,18.765l-2.075,2.02a1.989,1.989,0,0,1-2.817-2.809l4.891-4.845Zm5.471,2.965v.155a1.824,1.824,0,1,1-3.648,0V11.32l3.648-3.648Zm7.3-6.228a2.736,2.736,0,0,1,5.471,0v2.759a4.468,4.468,0,0,0-5.471,0Zm0,6.383a2.736,2.736,0,0,1,5.471,0v1.824a2.736,2.736,0,0,1-5.471,0Zm-1.824,15.5H56.425V35.563h1.824Zm10.943,0H67.367V35.563h1.824Zm-1.824-9.119a1.824,1.824,0,0,1,1.824,1.824V33.74H67.367V30.092H65.543v14.59a.911.911,0,0,0,.091.408l.253.5H63.72V37.387H61.9v8.207H59.724l.253-.5a.912.912,0,0,0,.1-.408V30.092H58.248V33.74H56.425V30.092a1.824,1.824,0,0,1,1.824-1.824Z" transform="translate(-40.012)"/>
    </g>
  </g>
</svg>
