<svg id="report" xmlns="http://www.w3.org/2000/svg" width="57.298" height="60" viewBox="0 0 57.298 60">
  <path id="Path_234" data-name="Path 234" d="M0,54.682A5.491,5.491,0,0,0,5.616,60H38.58a5.512,5.512,0,0,0,5.5-4.426,5.409,5.409,0,0,0,4.675-5.25V26.371h2.679a.959.959,0,0,0,.528-.146l4.9-3.183a.964.964,0,0,0,0-1.618l-4.9-3.216a1,1,0,0,0-.528-.183H48.75V12.745a1.2,1.2,0,0,0-.43-.833L37.163.546a.97.97,0,0,0-.227-.232l-.03-.028A.965.965,0,0,0,36.216,0H10.21A5.534,5.534,0,0,0,4.695,4.426,5.427,5.427,0,0,0,0,9.676ZM16.452,24.435V19.959H50.443v4.476Zm35.927-.8V20.83l2.159,1.4Zm-15-20.154L45.4,11.734H38.672a1.264,1.264,0,0,1-1.293-1.239Zm-27.17-1.55H35.443v8.559a3.2,3.2,0,0,0,3.229,3.175h8.142v4.355H15.532a1.058,1.058,0,0,0-1.016,1.022v.124l-2.88-.057h-.009a.994.994,0,0,0-.968,1l.03,4.212a.967.967,0,0,0,.968.96h2.858v.142a.993.993,0,0,0,1.016.946h2.045l-.013,1.452a2.13,2.13,0,0,0,.578,1.491,1.791,1.791,0,0,0,1.254.565h11.75a.968.968,0,1,0,0-1.935H19.5c0-.121,0-.06,0-.075l.014-1.5h27.3V50.324a3.523,3.523,0,0,1-3.64,3.386H10.209a3.557,3.557,0,0,1-3.677-3.386V5.471c0-.049.032-.1.032-.15a.923.923,0,0,0,0-.125,3.542,3.542,0,0,1,3.646-3.26Zm4.307,21.411h-1.9l-.041-2.264,1.938.023ZM1.935,9.676A3.535,3.535,0,0,1,4.6,6.414v43.91a5.492,5.492,0,0,0,5.613,5.321H42.068a3.551,3.551,0,0,1-3.488,2.419H5.615a3.557,3.557,0,0,1-3.68-3.382Zm0,0" transform="translate(0 0)" fill="#c7c7c7"/>
  <path id="Path_235" data-name="Path 235" d="M89.429,269.935H105.34a.968.968,0,0,0,0-1.935H89.429a.968.968,0,1,0,0,1.935Zm0,0" transform="translate(-77.76 -235.581)" fill="#c7c7c7"/>
  <path id="Path_236" data-name="Path 236" d="M89.429,308.935h27.691a.968.968,0,0,0,0-1.935H89.429a.968.968,0,1,0,0,1.935Zm0,0" transform="translate(-77.76 -269.863)" fill="#c7c7c7"/>
  <path id="Path_237" data-name="Path 237" d="M89.429,347.935h27.691a.968.968,0,0,0,0-1.935H89.429a.968.968,0,1,0,0,1.935Zm0,0" transform="translate(-77.76 -304.146)" fill="#c7c7c7"/>
  <path id="Path_238" data-name="Path 238" d="M89.429,386.935h27.691a.968.968,0,0,0,0-1.935H89.429a.968.968,0,1,0,0,1.935Zm0,0" transform="translate(-77.76 -338.428)" fill="#c7c7c7"/>
</svg>
