<svg xmlns="http://www.w3.org/2000/svg" width="44.604" height="41.777" viewBox="0 0 44.604 41.777">
  <path id="salary" d="M43.95,51.565a.653.653,0,0,0-.653.653v4.366a.11.11,0,0,1-.11.11H40.7V47.148a.653.653,0,1,0-1.307,0v9.546H34.6l1.3-1.428a1.045,1.045,0,0,0,.253-.838l0-.02-1.46-8.624.269-.4.07.05a1.023,1.023,0,0,0,1.507-.377h0l1.485-2.977,3.393,1.314A3.252,3.252,0,0,1,43.3,46.338v2.832a.653.653,0,1,0,1.307,0V46.338a4.556,4.556,0,0,0-2.7-4.158l-.012,0-5.777-2.238v-1.19a4.771,4.771,0,0,0,1.725-2.963,2.28,2.28,0,0,0,1.213-.534,2.25,2.25,0,0,0,.274-3.128V30.359A6.252,6.252,0,0,0,29.012,25.6a2.246,2.246,0,0,0-.506-1.36V22.481a6.257,6.257,0,1,0-12.515,0V24.29a2.131,2.131,0,0,0-.505,1.308,6.229,6.229,0,0,0-2.464-1.291.653.653,0,0,0-.333,1.264,4.952,4.952,0,0,1,3.686,4.787v.977l-.122-.022a.753.753,0,0,0-.156-.442c-.167-.24-.468-.54-1.434-1.578a1.033,1.033,0,0,0-1.324-.161,9.337,9.337,0,0,1-5.531,1.522,1.044,1.044,0,0,0-1.149.669l-.185.037v-1A4.982,4.982,0,0,1,10,25.618a.653.653,0,1,0-.377-1.251,6.307,6.307,0,0,0-3.19,2.226,6.2,6.2,0,0,0-1.26,3.766v1.809a2.129,2.129,0,0,0-.507,1.377,2.256,2.256,0,0,0,2,2.24,4.826,4.826,0,0,0,1.821,3.04v1.113L2.709,42.175l-.012,0A4.555,4.555,0,0,0,0,46.338V56.584A1.418,1.418,0,0,0,1.417,58H21.538a1.408,1.408,0,0,0,.764-.225,1.407,1.407,0,0,0,.764.225H43.187A1.418,1.418,0,0,0,44.6,56.584V52.219A.653.653,0,0,0,43.95,51.565ZM6.595,34.434a.943.943,0,0,1-.628-.89.965.965,0,0,1,.628-.85ZM36.8,41.6l-1.283,2.57-1.445-1.026,1.6-1.979Zm-3.672.634-1.69-2.086v-.627a5.269,5.269,0,0,0,1.7.278h0a4.831,4.831,0,0,0,1.678-.3v.658Zm.767,2.387-.24.362H32.6l-.24-.362.767-.545ZM22.3,34.358l-1.69-2.086v-.627a5.269,5.269,0,0,0,1.7.278h0a4.83,4.83,0,0,0,1.678-.3v.658Zm.767,2.387-.24.362H21.774l-.24-.362L22.3,36.2Zm-5.912-8.9a2.337,2.337,0,0,0,.328.063,4.826,4.826,0,0,0,1.821,3.04V32.06l-1.333.517a2.239,2.239,0,0,0-.289-.455V30.359A6.242,6.242,0,0,0,17.155,27.844Zm8.617-.692a3.524,3.524,0,0,1-7.046,0V24.092a10.7,10.7,0,0,0,5.959-1.62c.589.632.94,1,1.087,1.169C25.772,25.268,25.772,25.9,25.772,27.153Zm1.247.754a2.35,2.35,0,0,0,.326-.063,6.219,6.219,0,0,0-.529,2.515v1.809a2.23,2.23,0,0,0-.258.382l-1.264-.489V30.87A4.772,4.772,0,0,0,27.019,27.907ZM19.75,33.29l1.6,1.98-1.094.777h0l-.347.247-1.283-2.57ZM23.8,34.578l1.044-1.289,1.124.435L24.69,36.294l-.348-.247h0l-1.1-.778Zm.329,2.925.07.05a1.023,1.023,0,0,0,1.507-.377h0l1.1-2.21a2.294,2.294,0,0,0,1.491.821,4.75,4.75,0,0,0,1.823,3.038v1.113l-5.555,2.154-.708-4.184Zm6.441,3.665,1.6,1.98-1.443,1.025L29.453,41.6ZM36.6,35.03a3.524,3.524,0,0,1-7.046,0V31.969a10.7,10.7,0,0,0,5.959-1.62c.589.632.94,1,1.087,1.169C36.6,33.146,36.6,33.774,36.6,35.03Zm1.935-1.485a.943.943,0,0,1-.628.89V32.657A.942.942,0,0,1,38.531,33.545ZM28.123,30.358a4.95,4.95,0,1,1,9.9,0v.977l-.122-.022a.753.753,0,0,0-.156-.442c-.172-.247-.469-.541-1.434-1.578a1.034,1.034,0,0,0-1.324-.161,9.354,9.354,0,0,1-5.579,1.52,1.028,1.028,0,0,0-1.1.671l-.185.037v-1Zm.121,2.336v1.739a.941.941,0,0,1-.628-.889A.964.964,0,0,1,28.243,32.694Zm-.537-7.027a.94.94,0,0,1-.327.714.967.967,0,0,1-.3.176V24.78A.942.942,0,0,1,27.707,25.668Zm-5.458-8.137a4.956,4.956,0,0,1,4.95,4.95v.977l-.122-.022a.792.792,0,0,0-.185-.482c-.175-.237-.5-.562-1.4-1.538a1.033,1.033,0,0,0-1.324-.161,9.333,9.333,0,0,1-5.632,1.517,1.038,1.038,0,0,0-1.048.674l-.185.037v-1h0A4.956,4.956,0,0,1,22.249,17.531Zm-4.83,7.286v1.74a.943.943,0,0,1-.628-.89A.965.965,0,0,1,17.419,24.817Zm-1.164,7.84a.944.944,0,0,1,0,1.777Zm-.061,3.129a2.291,2.291,0,0,0,1.553-.9l1.143,2.29h0a1.023,1.023,0,0,0,1.507.377l.07-.05.269.4-.708,4.183-5.558-2.153V38.747h0A4.776,4.776,0,0,0,16.194,35.786Zm-4.718,6.449-1.69-2.086v-.627a5.267,5.267,0,0,0,1.7.278h0a4.828,4.828,0,0,0,1.678-.3v.658Zm.767,2.387-.24.362H10.949l-.24-.362.767-.545Zm1.781-3.456,1.124.435-1.283,2.57-.348-.247h0l-1.1-.778ZM7.9,35.03V31.969a10.709,10.709,0,0,0,5.959-1.62c.584.626.94,1,1.087,1.169V35.03a3.524,3.524,0,0,1-7.046,0Zm1.024,6.137,1.6,1.98-1.094.777h0l-.347.247L7.8,41.6ZM5.206,56.694V47.148a.653.653,0,0,0-1.307,0v9.546H1.417a.11.11,0,0,1-.11-.11V46.338A3.252,3.252,0,0,1,3.19,43.39L6.58,42.075l1.485,2.977h0a1.023,1.023,0,0,0,1.507.377l.07-.05.269.4-1.46,8.624,0,.02a1.046,1.046,0,0,0,.253.838L10,56.694H5.206Zm4.557-2.2,1.388-8.2h.65l1.388,8.2-1.713,1.884Zm11.885,2.094a.11.11,0,0,1-.11.11H19.056V47.148a.653.653,0,0,0-1.307,0v9.546h-4.8l1.3-1.428a1.045,1.045,0,0,0,.253-.838l0-.02-1.46-8.624.269-.4.07.05a1.023,1.023,0,0,0,1.507-.377h0l1.485-2.977,3.393,1.314a3.245,3.245,0,0,1,1.884,2.948V56.584ZM22.3,43.963a4.652,4.652,0,0,0-1.065-1.184l.739-4.365h.65l.739,4.368A4.656,4.656,0,0,0,22.3,43.963Zm4.553,12.731h0V47.148a.653.653,0,0,0-1.307,0v9.546H23.065a.11.11,0,0,1-.11-.11V46.338a3.123,3.123,0,0,1,.762-2.093,3.517,3.517,0,0,1,1.12-.855l3.391-1.315,1.485,2.977h0a1.023,1.023,0,0,0,1.507.377l.07-.05.269.4L30.1,54.408l0,.02a1.046,1.046,0,0,0,.253.839l1.3,1.428H26.855Zm4.557-2.2,1.388-8.2h.65l1.388,8.2-1.713,1.884Z" transform="translate(0 -16.225)" fill="#ababc7"/>
</svg>
