<svg xmlns="http://www.w3.org/2000/svg" width="62" height="62" viewBox="0 0 62 62">
  <g id="sharing" transform="translate(-1 -1)">
    <path id="Path_1668" data-name="Path 1668" d="M54.049,43.2A8.005,8.005,0,1,0,43.726,43H33.981c-.066-.155-.12-.311-.192-.466l1.493-2.465L34.213,39H36a3,3,0,0,0,3-3V34a3,3,0,0,0-3-3H34a1,1,0,0,1-1-1V29H43V24a11.008,11.008,0,0,0-7.025-10.245,7,7,0,1,0-7.95,0A11.048,11.048,0,0,0,22,19.444a11.045,11.045,0,0,0-6.025-5.689,7,7,0,1,0-7.95,0A11.008,11.008,0,0,0,1,24v5H11v1a1,1,0,0,1-1,1H8a3,3,0,0,0-3,3v2a3,3,0,0,0,3,3H9.787L8.718,40.069l1.492,2.465q-.231.5-.416.995L7,44.216v7.568l2.794.687q.185.5.416.995L8.718,55.931l5.352,5.352,2.465-1.492c.33.154.663.293,1,.416L18.216,63h7.568l.687-2.794q.5-.185,1-.416l2.465,1.492,5.352-5.352-1.492-2.465c.154-.33.293-.663.416-.995L37,51.784V50h1.5A1.5,1.5,0,0,1,40,51.5V63H63V54A11.012,11.012,0,0,0,54.049,43.2ZM43,37a6,6,0,1,1,6,6A6.006,6.006,0,0,1,43,37ZM27,8a5,5,0,1,1,5,5A5.006,5.006,0,0,1,27,8Zm5,7a9.01,9.01,0,0,1,9,9v3H38V19H36v8H28V19H26v8H23V24A9.01,9.01,0,0,1,32,15ZM7,8a5,5,0,1,1,5,5A5.006,5.006,0,0,1,7,8ZM3,24a9,9,0,0,1,18,0v3H18V19H16v8H8V19H6v8H3ZM8,37a1,1,0,0,1-1-1V34a1,1,0,0,1,1-1h2a3,3,0,0,0,3-3V29H31v1a3,3,0,0,0,3,3h2a1,1,0,0,1,1,1v2a1,1,0,0,1-1,1H32.213l-2.282-2.282L27.466,36.21q-.5-.231-1-.416L25.784,33H18.216l-.687,2.794q-.5.185-1,.416l-2.465-1.492L11.787,37ZM35,50.216l-2.345.577-.17.534a10.936,10.936,0,0,1-.723,1.727l-.259.5,1.255,2.074-3.133,3.133L27.551,57.5l-.5.259a10.894,10.894,0,0,1-1.725.722l-.536.169L24.216,61H19.784l-.577-2.345-.534-.17a10.936,10.936,0,0,1-1.727-.723l-.5-.259-2.074,1.255-3.133-3.133L12.5,53.551l-.259-.5a10.894,10.894,0,0,1-.722-1.725l-.169-.536L9,50.216V45.784l2.347-.577.169-.536a10.973,10.973,0,0,1,.722-1.725l.259-.5-1.255-2.074,3.133-3.133L16.449,38.5l.5-.259a10.894,10.894,0,0,1,1.725-.722l.536-.169L19.784,35h4.432l.577,2.347.536.169a10.973,10.973,0,0,1,1.725.722l.5.259,2.074-1.255,3.133,3.133L31.5,42.449l.259.5.026.054H29.46a8.978,8.978,0,1,0,1.315,7H35ZM24.389,49.8A3,3,0,1,1,22,45a2.8,2.8,0,0,1,.328.043A3.452,3.452,0,0,0,22,46.5a3.492,3.492,0,0,0,2.389,3.3Zm-.459-6.413A5,5,0,1,0,26.581,50h2.125a7.006,7.006,0,1,1-1.815-7H25.5a3.463,3.463,0,0,0-1.57.389ZM61,61H58V50H56V61H42V51.5A3.5,3.5,0,0,0,38.5,48h-13a1.5,1.5,0,0,1,0-3H52a9.01,9.01,0,0,1,9,9Z"/>
    <path id="Path_1669" data-name="Path 1669" d="M63,20a7.009,7.009,0,0,0-7-7H52a7.009,7.009,0,0,0-7,7v7H56A7.009,7.009,0,0,0,63,20ZM47,20a5.006,5.006,0,0,1,5-5h4a5,5,0,0,1,0,10H47Z"/>
    <path id="Path_1670" data-name="Path 1670" d="M49,21h2v2H49Z"/>
    <path id="Path_1671" data-name="Path 1671" d="M53,21h2v2H53Z"/>
    <path id="Path_1672" data-name="Path 1672" d="M57,21h2v2H57Z"/>
    <path id="Path_1673" data-name="Path 1673" d="M49,17H59v2H49Z"/>
  </g>
</svg>
