<svg xmlns="http://www.w3.org/2000/svg" width="511.999" height="511.916" viewBox="0 0 511.999 511.916">
  <g id="tax" transform="translate(0 -0.041)">
    <g id="Group_1031" data-name="Group 1031">
      <g id="Group_1030" data-name="Group 1030">
        <path id="Path_1169" data-name="Path 1169" d="M511.989,205.567a7.134,7.134,0,0,0-.053-.747c-.012-.1-.028-.191-.044-.286q-.055-.333-.141-.658c-.024-.091-.046-.182-.074-.272a7.141,7.141,0,0,0-.26-.713c-.022-.052-.039-.106-.062-.158a7.28,7.28,0,0,0-.441-.833c-.025-.041-.055-.078-.081-.118a7.237,7.237,0,0,0-.458-.635c-.059-.073-.121-.141-.183-.211-.145-.166-.3-.325-.457-.479-.073-.07-.147-.139-.223-.206-.06-.052-.113-.11-.174-.161l-45.094-37.072V81.262a25.742,25.742,0,0,0-25.712-25.713H333.519L274.134,6.729a27.938,27.938,0,0,0-36.276,0l-59.383,48.82H73.468A25.742,25.742,0,0,0,47.755,81.262v81.757L2.661,200.093c-.056.046-.105.1-.16.147-.087.076-.17.153-.253.233-.148.142-.289.291-.424.444-.071.08-.142.159-.209.242-.15.187-.288.381-.419.581-.038.057-.08.111-.116.17a7.343,7.343,0,0,0-.431.813c-.031.069-.054.141-.083.211-.089.215-.171.432-.239.655-.031.1-.057.206-.084.31q-.078.3-.131.613c-.018.107-.036.214-.05.323-.028.231-.043.464-.049.7,0,.065-.013.128-.013.193V407.187a7.293,7.293,0,0,0,14.586,0V220.477L179.972,346.848,14.837,482.61a17.274,17.274,0,0,1-.25-2.812V453.243a7.293,7.293,0,1,0-14.587,0V479.8a31.793,31.793,0,0,0,5.954,18.537c.069.105.132.212.207.314.057.078.123.149.181.226q.624.837,1.3,1.629c.173.2.349.4.527.6.456.51.925,1.009,1.412,1.49.07.069.132.145.2.213l.064.062c.43.414.873.815,1.366,1.239l.083.072c.145.123.3.238.444.359.064.053.13.105.194.157.228.185.452.376.686.555.031.024.064.048.1.073.073.056.154.1.227.158.563.421,1.143.82,1.734,1.2q.285.184.574.365.95.591,1.939,1.119c.066.035.126.076.193.111l.284.143c.229.116.463.231.707.347l.029.014c.2.094.4.188.614.287l.332.147c.122.054.248.105.371.158l.168.071c.266.111.539.221.834.335l.311.121c.045.017.092.03.137.047.305.112.615.214.924.317.2.067.4.143.6.207a.289.289,0,0,0,.039.012c.02.006.04.01.059.017.543.168,1.092.319,1.646.459l.058.016c.133.033.267.064.431.1.1.024.2.042.306.066.312.07.624.14.94.2l.075.016c.212.041.425.078.628.111.033.006.066.009.1.015.329.056.658.106.99.152l.095.014c.222.03.445.059.665.084l.06.005c.351.039.7.069,1.059.1.044,0,.093.009.137.013l.1.009c.161.013.323.026.494.035h.014c.608.034,1.219.055,1.835.055H479.572c.615,0,1.224-.021,1.83-.054h.025c.163-.01.326-.022.487-.035l.1-.009.118-.011c.361-.028.721-.058,1.078-.1l.056-.005c.226-.026.45-.054.652-.082l.106-.016q.492-.068.978-.149c.039-.007.079-.011.118-.018.21-.035.422-.072.615-.109.028-.005.055-.012.083-.018.324-.063.645-.135.966-.207.1-.023.2-.041.3-.065.142-.031.283-.064.4-.093l.058-.016c.553-.139,1.1-.29,1.644-.457l.08-.022.039-.012c.436-.136.874-.287,1.324-.45l.137-.049L491,509.9l.342-.133c.147-.057.289-.12.435-.179.207-.084.415-.167.62-.255.081-.035.167-.066.247-.1l.407-.181c.189-.086.377-.175.567-.265l0,0c.25-.119.5-.244.772-.38l.266-.135c.065-.034.126-.076.191-.11.64-.34,1.265-.7,1.879-1.085.209-.129.414-.26.619-.394.58-.379,1.15-.771,1.7-1.185.076-.057.159-.106.234-.163h0l.1-.072c.235-.18.46-.372.69-.559l.19-.154c.15-.123.3-.24.452-.366h0l.126-.107c.161-.139.314-.287.472-.429l.127-.115c.215-.2.436-.385.645-.586.026-.024.051-.047.076-.072.08-.077.151-.164.23-.241.488-.48.958-.977,1.415-1.486.184-.206.365-.413.545-.623q.68-.8,1.31-1.638c.059-.079.127-.151.184-.231.076-.1.141-.213.211-.321A31.789,31.789,0,0,0,512,479.8V205.726C512,205.672,511.99,205.62,511.989,205.567Zm-464.234,21.9L19.031,205.516,47.755,181.9ZM464.245,181.9l28.724,23.614-28.724,21.948ZM247.123,18a13.355,13.355,0,0,1,17.749,0l45.677,37.551h-109.1ZM62.342,238.61V81.262A11.139,11.139,0,0,1,73.468,70.135H438.532a11.139,11.139,0,0,1,11.126,11.127V238.61l-177.99,136a28.079,28.079,0,0,1-27.748,2.1,25.265,25.265,0,0,1-3.584-2.1Zm425.93,256.516c-.1.053-.185.108-.282.159q-.684.361-1.4.666l-.18.074a17.887,17.887,0,0,1-3.1.951l-.242.052c-.5.1-1.015.175-1.533.231-.119.013-.24.022-.36.032-.53.047-1.064.08-1.606.08H32.429c-.543,0-1.078-.033-1.609-.08-.117-.01-.233-.019-.351-.031-.518-.056-1.03-.132-1.534-.231-.085-.017-.175-.038-.261-.056a17.962,17.962,0,0,1-3.075-.944l-.2-.081q-.73-.309-1.428-.678c-.058-.031-.113-.065-.171-.1-.253-.138-.5-.293-.74-.443L191.875,355.945l39.707,30.34c.066.051.133.1.2.148a42.347,42.347,0,0,0,48.432,0c.067-.047.134-.1.2-.148l39.7-30.337L488.935,494.729C488.715,494.863,488.5,495,488.272,495.126Zm9.142-15.328a17.387,17.387,0,0,1-.25,2.812L332.026,346.85,497.414,220.477Z" fill="#6262a0"/>
      </g>
    </g>
    <g id="Group_1033" data-name="Group 1033">
      <g id="Group_1032" data-name="Group 1032">
        <path id="Path_1170" data-name="Path 1170" d="M377.746,264.918H134.256a7.293,7.293,0,0,0,0,14.586h243.49a7.293,7.293,0,1,0,0-14.586Z" fill="#6262a0"/>
      </g>
    </g>
    <g id="Group_1035" data-name="Group 1035">
      <g id="Group_1034" data-name="Group 1034">
        <path id="Path_1171" data-name="Path 1171" d="M396.9,218.242H368.437a7.293,7.293,0,1,0,0,14.586H396.9a7.293,7.293,0,0,0,0-14.586Z" fill="#6262a0"/>
      </g>
    </g>
    <g id="Group_1037" data-name="Group 1037">
      <g id="Group_1036" data-name="Group 1036">
        <path id="Path_1172" data-name="Path 1172" d="M321.645,218.241H115.485a7.293,7.293,0,0,0,0,14.586h206.16a7.293,7.293,0,0,0,0-14.586Z" fill="#6262a0"/>
      </g>
    </g>
    <g id="Group_1039" data-name="Group 1039">
      <g id="Group_1038" data-name="Group 1038">
        <path id="Path_1173" data-name="Path 1173" d="M187.866,108.729H141.658c-3.375,0-5.141,3.315-5.141,6.589,0,3.883,2.162,6.7,5.141,6.7h16.014v65.45c0,3.027,2.938,5.142,7.145,5.142,3.551,0,7.146-1.766,7.146-5.142v-65.45h15.9c3.027,0,5.142-2.8,5.142-6.812C193.007,112.086,191.4,108.729,187.866,108.729Z" fill="#6262a0"/>
      </g>
    </g>
    <g id="Group_1041" data-name="Group 1041">
      <g id="Group_1040" data-name="Group 1040">
        <path id="Path_1174" data-name="Path 1174" d="M282.69,185.1l-22.057-72.18c-.984-2.952-4.42-4.86-8.752-4.86-4.265,0-7.656,1.908-8.65,4.888L221.084,185.07a4.2,4.2,0,0,0-.176,1.4c0,3.621,4.529,6.144,8.593,6.144,3.528,0,4.834-1.807,5.315-3.349l4.3-14.911h25.631l4.313,14.937c.67,2.142,2.516,3.322,5.2,3.322,4.109,0,8.7-2.627,8.7-6.144A4.293,4.293,0,0,0,282.69,185.1ZM242.4,162.4l9.476-32.5,9.476,32.5Z" fill="#6262a0"/>
      </g>
    </g>
    <g id="Group_1043" data-name="Group 1043">
      <g id="Group_1042" data-name="Group 1042">
        <path id="Path_1175" data-name="Path 1175" d="M374.533,182.943l-18.9-32.337,18.357-32.123a7.331,7.331,0,0,0,1.047-3.5c0-3.883-4.529-6.589-8.593-6.589-2.368,0-4.349,1.44-5.546,3.988l-14.489,26.493L332.136,112.4c-1.751-3.309-3.987-4-5.554-4-4.117,0-8.7,2.706-8.7,6.589a7.334,7.334,0,0,0,1.055,3.513l18.349,32.11-18.938,32.409a6.522,6.522,0,0,0-.8,2.9c0,3.9,4.823,7.035,8.816,7.035,1.868,0,3.64-1.2,4.876-3.318l15.173-27.644,15.359,27.6a5.635,5.635,0,0,0,4.787,3.36c4.128,0,8.927-3.073,8.927-7.035A6.8,6.8,0,0,0,374.533,182.943Z" fill="#6262a0"/>
      </g>
    </g>
  </g>
</svg>
