<svg xmlns="http://www.w3.org/2000/svg" viewBox="0 0 52.4 52.4"><path d="M17.12 45.942c18.3 0 28.4-15.2 28.4-28.4v-1.3c1.9-1.4 3.6-3.2 5-5.2-1.8.8-3.7 1.3-5.7 1.6 2.1-1.2 3.6-3.2 4.4-5.5-1.9 1.1-4.1 2-6.3 2.4-1.8-1.9-4.4-3.2-7.3-3.2-5.5 0-10 4.5-10 10 0 .8.1 1.5.3 2.3-8.3-.4-15.6-4.4-20.6-10.4-.9 1.5-1.4 3.2-1.4 5 0 3.5 1.8 6.5 4.4 8.3-1.6-.1-3.2-.5-4.5-1.2v.1c0 4.8 3.4 8.9 8 9.8-.8.2-1.7.4-2.6.4-.6 0-1.3-.1-1.9-.2 1.3 4 5 6.8 9.3 6.9-3.4 2.7-7.7 4.3-12.4 4.3-.8 0-1.6 0-2.4-.1 4.5 2.7 9.7 4.4 15.3 4.4"/></svg>