<svg xmlns="http://www.w3.org/2000/svg" width="59.42" height="59.422" viewBox="0 0 59.42 59.422">
  <g id="y1" transform="translate(-0.29 -0.289)">
    <path id="Path_1126" data-name="Path 1126" d="M30,59.71A29.71,29.71,0,1,1,59.71,30,29.71,29.71,0,0,1,30,59.71ZM30,3.79A26.21,26.21,0,1,0,56.21,30,26.21,26.21,0,0,0,30,3.79Z" fill="#6262a0"/>
    <path id="Path_1127" data-name="Path 1127" d="M30.47,40.24l-2.2-.89-.02-1.2V21.76h3.5V34.02L45.02,20.74l2.47,2.48L30.47,40.24ZM30,7.22a2.46,2.46,0,1,0,2.45,2.46A2.46,2.46,0,0,0,30,7.22Z" fill="#6262a0"/>
    <circle id="Ellipse_60" data-name="Ellipse 60" cx="2.45" cy="2.45" r="2.45" transform="translate(27.55 47.88)" fill="#6262a0"/>
    <path id="Path_1128" data-name="Path 1128" d="M50.33,27.55A2.45,2.45,0,1,0,52.78,30a2.45,2.45,0,0,0-2.45-2.45Zm-40.66,0a2.45,2.45,0,1,0,1.739.714A2.45,2.45,0,0,0,9.67,27.55Z" fill="#6262a0"/>
  </g>
</svg>
