<svg xmlns="http://www.w3.org/2000/svg" width="52" height="59.461" viewBox="0 0 52 59.461">
  <g id="y2" transform="translate(-4 -0.27)">
    <path id="Path_1129" data-name="Path 1129" d="M4,.27V59.73H56V.27Zm48.53,56h-45V3.77h45Z" fill="#6262a0"/>
    <path id="Path_1130" data-name="Path 1130" d="M39.46,21.55a8.58,8.58,0,0,0-5.9,14.82V50.31l5.9-3.56,5.9,3.56V36.38a8.58,8.58,0,0,0-5.9-14.83Zm2.4,22.56-2.4-1.45-2.4,1.45V38.39a8.64,8.64,0,0,0,4.8,0Zm1.75-11a5,5,0,0,1-1.75,1.54,5.09,5.09,0,0,1-7.49-4.49,4.81,4.81,0,0,1,.32-1.75,5.09,5.09,0,1,1,8.92,4.7ZM14.27,12.28H45.72v3.5H14.27Zm0,15.69h11.6v3.5H14.27Zm0,15.7h13.9v3.5H14.27Z" fill="#6262a0"/>
  </g>
</svg>
