<svg xmlns="http://www.w3.org/2000/svg" width="48.9" height="46.201" viewBox="0 0 48.9 46.201">
  <g id="y3" transform="translate(-0.6 -2.199)">
    <g id="Group_1029" data-name="Group 1029">
      <path id="Path_1131" data-name="Path 1131" d="M11.2,27.1,8.7,25.2,7,27.3l4.5,3.6,6.2-7.2-2-1.8Z" fill="#6262a0"/>
      <path id="Path_1132" data-name="Path 1132" d="M41.7,5.3V3.6a1.415,1.415,0,0,0-1.3-1.4A1.43,1.43,0,0,0,39,3.6V5.3H34V3.6a1.415,1.415,0,0,0-1.3-1.4,1.347,1.347,0,0,0-1.3,1.4V5.3h-5V3.6a1.415,1.415,0,0,0-1.3-1.4,1.347,1.347,0,0,0-1.3,1.4V5.3h-5V3.6a1.415,1.415,0,0,0-1.3-1.4A1.52,1.52,0,0,0,16,3.6V5.3H11V3.6A1.415,1.415,0,0,0,9.7,2.2,1.43,1.43,0,0,0,8.3,3.6V5.3H.6V48.4H49.5V5.3ZM8.3,8V9.2a1.415,1.415,0,0,0,1.3,1.4A1.43,1.43,0,0,0,11,9.2V8h5V9.2a1.415,1.415,0,0,0,1.3,1.4,1.347,1.347,0,0,0,1.3-1.4V8h5V9.2a1.415,1.415,0,0,0,1.3,1.4,1.347,1.347,0,0,0,1.3-1.4V8h5V9.2a1.415,1.415,0,0,0,1.3,1.4,1.347,1.347,0,0,0,1.3-1.4V8h5V9.2a1.415,1.415,0,0,0,1.3,1.4,1.347,1.347,0,0,0,1.3-1.4V8h5v7.1H3.3V8Zm-5,37.7V17.8H46.8V45.7H3.3Z" fill="#6262a0"/>
      <rect id="Rectangle_1259" data-name="Rectangle 1259" width="20.8" height="2.7" transform="translate(21.2 24.7)" fill="#6262a0"/>
      <path id="Path_1133" data-name="Path 1133" d="M11.2,38,8.7,36,7,38.1l4.5,3.6,6.2-7.2-2-1.8Z" fill="#6262a0"/>
      <rect id="Rectangle_1260" data-name="Rectangle 1260" width="20.8" height="2.7" transform="translate(21.2 35.5)" fill="#6262a0"/>
    </g>
  </g>
</svg>
