<svg xmlns="http://www.w3.org/2000/svg" width="53.24" height="59.449" viewBox="0 0 53.24 59.449">
  <path id="y5" d="M56.62,13.15H36.23c2.64-1.93,4.77-4.44,5.16-7a4.85,4.85,0,0,0-2.16-4.91A4.84,4.84,0,0,0,33.89.93a9.82,9.82,0,0,0-3.82,4.63A9.88,9.88,0,0,0,26.25.93a4.86,4.86,0,0,0-5.35.33,4.85,4.85,0,0,0-2.16,4.91c.4,2.54,2.52,5.05,5.16,7H3.38v14.3h4V59.72h45.3V27.47h3.91ZM35.59,4a1.38,1.38,0,0,1,.7-.21,1.69,1.69,0,0,1,.94.35,1.39,1.39,0,0,1,.71,1.5c-.28,1.75-2.77,4.42-6,6.09C32.38,8.12,34,4.85,35.59,4ZM22.9,4.13a1.69,1.69,0,0,1,.94-.35,1.44,1.44,0,0,1,.71.21c1.56.86,3.21,4.13,3.65,7.73-3.22-1.66-5.73-4.33-6-6.09A1.38,1.38,0,0,1,22.9,4.13ZM6.88,24V16.65H28.25V24Zm4,3.5H28.25V56.22H10.91Zm38.3,28.75H31.75V27.47H49.21ZM53.12,24H31.75V16.65H53.12Z" transform="translate(-3.38 -0.271)" fill="#6262a0"/>
</svg>
