<svg xmlns="http://www.w3.org/2000/svg" width="59.42" height="59.422" viewBox="0 0 59.42 59.422">
  <g id="y6" transform="translate(-0.29 -0.289)">
    <path id="Path_1136" data-name="Path 1136" d="M30,59.71A29.71,29.71,0,1,1,59.71,30,29.71,29.71,0,0,1,30,59.71ZM30,3.79A26.21,26.21,0,1,0,56.21,30,26.21,26.21,0,0,0,30,3.79Z" fill="#6262a0"/>
    <path id="Path_1137" data-name="Path 1137" d="M36.79,12.65l-3.28,1.22.59,1.57a15.13,15.13,0,0,0-16.85,22.7l2.95-1.88A11.63,11.63,0,0,1,30,18.38a11.77,11.77,0,0,1,2.45.25l-1.32.5,1.23,3.28,7.09-2.66Zm5.96,9.23-3,1.89A11.594,11.594,0,0,1,27.56,41.39l1.32-.5-1.23-3.27-7.1,2.66,2.66,7.1,3.28-1.23-.59-1.57a15.31,15.31,0,0,0,4.1.57A15.13,15.13,0,0,0,42.75,21.88Z" fill="#6262a0"/>
  </g>
</svg>
